<?xml version="1.0" encoding="UTF-8"?>
<svg xmlns="http://www.w3.org/2000/svg" viewBox="0 0 1024 1024">
  <defs>
    <linearGradient id="bg" x1="0" y1="0" x2="1" y2="1">
      <stop offset="0" stop-color="#2F80ED"/><stop offset="1" stop-color="#1557B0"/>
    </linearGradient>
    <filter id="shadow" x="-20%" y="-20%" width="140%" height="150%">
      <feDropShadow dx="0" dy="20" stdDeviation="24" flood-opacity=".25"/>
    </filter>
  </defs>
  <rect x="64" y="64" width="896" height="896" rx="205" fill="url(#bg)"/>
  <g transform="translate(174 226) scale(28.15)" fill="#fff" filter="url(#shadow)">
    <path d="M4.13,8.96c-.79,0-1.49-.17-2.11-.52s-1.12-.86-1.48-1.52-.54-1.48-.54-2.43.18-1.78.55-2.44.86-1.18,1.49-1.52,1.32-.52,2.1-.52c.52,0,1,.07,1.44.21s.83.35,1.17.62.62.61.83,1,.35.85.41,1.36h-2.09c-.04-.21-.1-.41-.19-.58s-.21-.32-.36-.44-.32-.21-.51-.28-.41-.09-.64-.09c-.43,0-.79.11-1.1.32s-.55.51-.71.91-.25.88-.25,1.44.08,1.07.25,1.47.41.69.71.89.67.3,1.09.3c.23,0,.45-.03.64-.09s.37-.15.52-.28.27-.27.37-.44.16-.36.2-.58h2.09c-.04.39-.15.77-.33,1.15s-.44.72-.76,1.03-.72.56-1.18.74-.99.28-1.58.28Z"/>
    <path d="M4.13,20.3c-.79,0-1.49-.17-2.11-.52s-1.12-.86-1.48-1.52-.54-1.48-.54-2.43.18-1.78.55-2.44.86-1.18,1.49-1.52,1.32-.52,2.1-.52c.52,0,1,.07,1.44.21s.83.35,1.17.62.62.61.83,1,.35.85.41,1.36h-2.09c-.04-.21-.1-.41-.19-.58s-.21-.32-.36-.44-.32-.21-.51-.28-.41-.09-.64-.09c-.43,0-.79.11-1.1.32s-.55.51-.71.91-.25.88-.25,1.44.08,1.07.25,1.47.41.69.71.89.67.3,1.09.3c.23,0,.45-.03.64-.09s.37-.15.52-.28.27-.27.37-.44.16-.36.2-.58h2.09c-.04.39-.15.77-.33,1.15s-.44.72-.76,1.03-.72.56-1.18.74-.99.28-1.58.28Z"/>
    <path d="M23.81,9.75l-5.12-2.84c-.05-.03-.12-.04-.19-.04l-12.99.08a.375.375 0 0 0 .01.75l11.51-.07a1.1 1.1 0 0 0 .01 1.12l-11.53.08a.375.375 0 0 0 .01.75l11.52-.08a1.09 1.09 0 0 0 .01 1.11l-11.54.09a.375.375 0 0 0 .01.75l11.55-.09a1.1 1.1 0 0 0 .01 1.12l-11.57.1a.375.375 0 0 0 .01.75l12.99-.11c.07,0,.13-.02.19-.05l5.08-2.76a.38.38 0 0 0 .01-.66Zm-5.34,2.71c-.43-.03-.8-.26-.81-.54 0-.29.39-.55.85-.56a.38.38 0 0 0 .39-.38c0-.22-.16-.42-.37-.38h-.05c-.46,0-.85-.25-.85-.55 0-.29.4-.55.88-.56a.375.375 0 0 0-.01-.75c-.47-.01-.87-.26-.87-.55 0-.28.36-.52.8-.56l4.41,2.45-4.38,2.38Z"/>
  </g>
</svg>
