<?xml version="1.0" encoding="UTF-8"?><svg id="_Слой_2" xmlns="http://www.w3.org/2000/svg" viewBox="0 0 3886.63 360.59"><defs><style>.cls-1{fill:#1b1b1b;}</style></defs><g id="_Слой_2-2"><path class="cls-1" d="M24.46,208.93L0,181.17,149.79,49.15c25.09-22.11,62.94-22.13,88.05-.04l117.95,103.75c11.16,9.82,27.99,9.81,39.15-.02l118.04-104.04c25.06-22.09,62.9-22.13,88.01-.08l149.77,131.51-24.41,27.8-149.77-131.51c-11.16-9.8-27.98-9.79-39.13.04l-118.04,104.04c-12.55,11.06-28.3,16.59-44.05,16.6-15.73,0-31.45-5.51-44-16.55l-117.95-103.75c-11.16-9.82-27.99-9.81-39.15.02L24.46,208.93Z"/><path class="cls-1" d="M1255.15,205.62h-399.9c-45.64,0-82.77-37.13-82.77-82.77s37.13-82.77,82.77-82.77h399.9c45.64,0,82.77,37.13,82.77,82.77s-37.13,82.77-82.77,82.77ZM855.25,77.08c-25.24,0-45.77,20.53-45.77,45.77s20.53,45.77,45.77,45.77h399.9c25.24,0,45.77-20.53,45.77-45.77s-20.53-45.77-45.77-45.77h-399.9Z"/><path class="cls-1" d="M2823.84,276.94l-99.39-99.39-.42-.49c-13.1-15.07-20.32-34.32-20.32-54.21,0-45.64,37.13-82.77,82.77-82.77h399.9c45.64,0,82.77,37.13,82.77,82.77s-37.13,82.77-82.77,82.77h-335.64v-37h335.64c25.24,0,45.77-20.53,45.77-45.77s-20.53-45.77-45.77-45.77h-399.9c-25.24,0-45.77,20.53-45.77,45.77,0,10.77,3.85,21.21,10.86,29.48l98.44,98.44-26.16,26.16Z"/><path class="cls-1" d="M3441.32,276.94l-99.39-99.39-.42-.49c-13.1-15.07-20.32-34.32-20.32-54.21,0-45.64,37.13-82.77,82.77-82.77h399.9c45.64,0,82.77,37.13,82.77,82.77s-37.13,82.77-82.77,82.77h-335.64v-37h335.64c25.24,0,45.77-20.53,45.77-45.77s-20.53-45.77-45.77-45.77h-399.9c-25.24,0-45.77,20.53-45.77,45.77,0,10.77,3.85,21.21,10.86,29.48l98.44,98.44-26.16,26.16Z"/><path class="cls-1" d="M2568.12,205.62h-400.65c-45.23,0-82.02-36.79-82.02-82.02V0h37v123.6c0,24.82,20.2,45.02,45.02,45.02h400.65c25.24,0,45.77-20.53,45.77-45.77s-20.53-45.77-45.77-45.77h-399.29v-37h399.29c45.64,0,82.77,37.13,82.77,82.77s-37.13,82.77-82.77,82.77Z"/><path class="cls-1" d="M1590.5,205.52h-210.35v-37h210.35c42.93,0,66.74-25.41,94.32-54.83,32.3-34.46,68.9-73.51,140.26-73.51h212v37h-212c-55.32,0-83.46,30.03-113.26,61.82-29.23,31.19-62.36,66.53-121.32,66.53Z"/><polygon class="cls-1" points="29.15 279.8 1.01 360.59 11.96 360.59 40.1 279.8 29.15 279.8"/><polygon class="cls-1" points="27.64 360.59 38.59 360.59 66.73 279.8 55.77 279.8 27.64 360.59"/><path class="cls-1" d="M133.39,287.24c-6.47-3.15-13.98-4.72-22.56-4.72h-34.06v75.36h34.06c8.57,0,16.09-1.57,22.56-4.72,6.46-3.15,11.5-7.55,15.12-13.21,3.62-5.66,5.43-12.24,5.43-19.75s-1.81-14.08-5.43-19.74c-3.62-5.66-8.66-10.06-15.12-13.21ZM136.91,333.81c-2.38,3.92-5.73,6.97-10.05,9.14-4.32,2.18-9.36,3.27-15.12,3.27h-21.7v-52.05h21.7c5.76,0,10.8,1.09,15.12,3.27,4.32,2.18,7.67,5.21,10.05,9.09,2.38,3.89,3.57,8.44,3.57,13.67s-1.19,9.7-3.57,13.62Z"/><polygon class="cls-1" points="176.3 325.72 217.11 325.72 217.11 314.67 176.34 314.67 176.3 293.97 228.7 293.97 228.7 282.51 163.49 282.51 163.49 320.19 163.49 357.87 229.2 357.87 229.2 346.42 176.1 346.42 176.3 325.72"/><path class="cls-1" d="M300.49,318.74c-3.92-1.57-9.26-2.83-16.03-3.77l-16.48-2.31c-5.43-.74-9.23-1.82-11.4-3.27-2.18-1.44-3.27-3.5-3.27-6.18,0-3.48,1.84-6.23,5.53-8.24,3.68-2.01,8.61-3.01,14.77-3.01,4.35,0,8.14.55,11.35,1.66,3.22,1.11,5.78,2.63,7.69,4.57,1.91,1.94,3.03,4.25,3.37,6.93h13.46c-.27-4.82-1.96-9.03-5.07-12.61-3.12-3.58-7.29-6.38-12.51-8.39-5.22-2.01-11.22-3.01-17.99-3.01s-12.8.92-17.89,2.76c-5.09,1.84-9.03,4.46-11.81,7.84-2.78,3.38-4.17,7.39-4.17,12.01,0,6.1,2.06,10.8,6.18,14.12,4.12,3.32,10.73,5.58,19.85,6.78l16.28,2.11c5.96.74,10.08,1.84,12.36,3.32,2.28,1.47,3.42,3.68,3.42,6.63,0,3.62-1.98,6.48-5.93,8.59-3.95,2.11-9.31,3.17-16.08,3.17-4.56,0-8.58-.62-12.06-1.86-3.48-1.24-6.28-3-8.39-5.28-2.11-2.28-3.37-4.92-3.77-7.94h-13.46c.27,5.16,2.01,9.68,5.23,13.57,3.22,3.89,7.59,6.92,13.11,9.09,5.53,2.18,11.91,3.27,19.14,3.27s13.31-.99,18.64-2.96c5.33-1.97,9.46-4.77,12.41-8.39,2.95-3.62,4.42-7.84,4.42-12.66,0-4.15-.84-7.55-2.51-10.2-1.68-2.65-4.47-4.76-8.39-6.33Z"/><rect class="cls-1" x="323.75" y="282.51" width="13.26" height="75.36"/><path class="cls-1" d="M396,330.84h26.2c-.68,2.03-1.64,3.93-2.89,5.68-2.55,3.58-6.03,6.38-10.45,8.39-4.42,2.01-9.58,3.01-15.47,3.01s-11.39-1.11-15.88-3.32c-4.49-2.21-7.96-5.39-10.4-9.55-2.45-4.15-3.67-9.11-3.67-14.87s1.19-10.68,3.57-14.77c2.38-4.08,5.73-7.22,10.05-9.39,4.32-2.18,9.43-3.27,15.32-3.27,5.02,0,9.45.7,13.26,2.11,3.82,1.41,6.95,3.42,9.4,6.03,2.44,2.61,4.03,5.69,4.77,9.24h13.46c-.8-5.63-2.98-10.62-6.53-14.97-3.55-4.35-8.22-7.79-14.02-10.3-5.79-2.51-12.54-3.77-20.25-3.77-6.16,0-11.82.9-16.98,2.71-5.16,1.81-9.65,4.41-13.46,7.79-3.82,3.38-6.78,7.49-8.89,12.31-2.11,4.82-3.17,10.25-3.17,16.28s1.04,11.46,3.12,16.28c2.08,4.82,5.01,8.93,8.79,12.31,3.78,3.38,8.22,5.98,13.31,7.79,5.09,1.81,10.62,2.71,16.58,2.71s11.14-.89,15.73-2.66c4.59-1.77,8.49-4.24,11.71-7.39,1.63-1.59,3.06-3.31,4.31-5.16l.71,13.8h9.85v-37.08h-38.08v10.05Z"/><polygon class="cls-1" points="513.36 282.51 513.36 342.88 466.24 282.51 448.95 282.51 448.95 357.87 461.81 357.87 461.81 296.79 509.34 357.87 526.22 357.87 526.22 282.51 513.36 282.51"/></g></svg>