<?xml version="1.0" encoding="UTF-8"?>
<svg id="_Слой_2" data-name="Слой 2" xmlns="http://www.w3.org/2000/svg" viewBox="0 0 21.86 20.29">
  <defs>
    <style>
      .cls-1 {
        fill: #fff;
      }
    </style>
  </defs>
  <g id="_Слой_2-2" data-name=" Слой 2">
    <g>
      <path class="cls-1" d="M4.13,8.95c-.79,0-1.49-.17-2.11-.52s-1.12-.86-1.48-1.52-.54-1.48-.54-2.43.18-1.78.55-2.44.86-1.18,1.49-1.52c.63-.34,1.32-.52,2.1-.52.52,0,1,.07,1.44.21.44.14.83.35,1.17.62.34.27.62.61.83,1s.35.85.41,1.36h-2.09c-.04-.21-.1-.41-.19-.58s-.21-.32-.36-.44-.32-.21-.51-.28-.41-.09-.64-.09c-.43,0-.79.11-1.1.32s-.55.51-.71.91-.25.88-.25,1.44.08,1.07.25,1.47.41.69.71.89.67.3,1.09.3c.23,0,.45-.03.64-.09s.37-.15.52-.28.27-.27.37-.44.16-.36.2-.58h2.09c-.04.39-.15.77-.33,1.15s-.44.72-.76,1.03-.72.56-1.18.74-.99.28-1.58.28h-.03Z"/>
      <path class="cls-1" d="M4.13,20.29c-.79,0-1.49-.17-2.11-.52s-1.12-.86-1.48-1.52-.54-1.48-.54-2.43.18-1.78.55-2.44.86-1.18,1.49-1.52c.63-.34,1.32-.52,2.1-.52.52,0,1,.07,1.44.21s.83.35,1.17.62.62.61.83,1,.35.85.41,1.36h-2.09c-.04-.21-.1-.41-.19-.58s-.21-.32-.36-.44-.32-.21-.51-.28-.41-.09-.64-.09c-.43,0-.79.11-1.1.32s-.55.51-.71.91-.25.88-.25,1.44.08,1.07.25,1.47.41.69.71.89.67.3,1.09.3c.23,0,.45-.03.64-.09s.37-.15.52-.28.27-.27.37-.44.16-.36.2-.58h2.09c-.04.39-.15.77-.33,1.15s-.44.72-.76,1.03-.72.56-1.18.74-.99.28-1.58.28h-.03Z"/>
      <path class="cls-1" d="M21.49,19.19c.14,0,.26-.07.33-.2s.06-.27-.02-.39l-3.11-4.87h0c-.03-.05-.07-.1-.12-.13h-.02s-.03-.03-.03-.03L7.2,7.19h0c-.18-.1-.41-.04-.51.14s-.04.41.14.51l10.07,5.69c-.17.1-.31.24-.41.41s-.15.37-.14.56l-10.06-5.67h0c-.18-.1-.41-.04-.51.14s-.04.41.14.51l10.05,5.67c-.17.11-.32.25-.41.41s-.14.36-.14.55l-10.04-5.65h0c-.18-.1-.41-.04-.51.14s-.04.41.14.51l10.05,5.65c-.17.1-.31.24-.41.41-.11.17-.15.37-.14.56l-10.04-5.63h0c-.18-.1-.41-.04-.51.14s-.04.41.14.51l11.33,6.36h0c.05.03.11.05.17.05h.02s5.85,0,5.85,0h.02ZM18.09,14.22l2.68,4.2h-5.04c-.37-.24-.56-.62-.43-.87s.61-.28,1.01-.07h.03c.1.07.19.08.29.05.1-.03.18-.08.24-.18.1-.18.04-.41-.14-.51l-.06-.03c-.19-.13-.35-.29-.44-.47-.04-.09-.09-.27,0-.42s.27-.19.37-.21c.2-.03.42.02.64.14l.04.02c.16.13.36.05.48-.1.02-.01.03-.03.04-.05.08-.14.05-.3-.04-.42-.03-.04-.07-.07-.12-.1h0c-.4-.24-.61-.65-.47-.91.14-.24.58-.26.97-.08h-.02Z"/>
    </g>
  </g>
</svg>