<?xml version="1.0" encoding="UTF-8"?>
<svg id="_Слой_2" data-name="Слой 2" xmlns="http://www.w3.org/2000/svg" viewBox="0 0 21.86 20.29">
  <defs>
    <style>
      .cls-1 {
        fill: #fff;
      }
    </style>
  </defs>
  <g id="_Слой_2-2" data-name=" Слой 2">
    <g>
      <path class="cls-1" d="M4.13,8.95c-.79,0-1.49-.17-2.11-.52s-1.12-.86-1.48-1.52-.54-1.48-.54-2.43.18-1.78.55-2.44.86-1.18,1.49-1.52c.63-.34,1.32-.52,2.1-.52.52,0,1,.07,1.44.21.44.14.83.35,1.17.62.34.27.62.61.83,1s.35.85.41,1.36h-2.09c-.04-.21-.1-.41-.19-.58s-.21-.32-.36-.44-.32-.21-.51-.28-.41-.09-.64-.09c-.43,0-.79.11-1.1.32s-.55.51-.71.91-.25.88-.25,1.44.08,1.07.25,1.47.41.69.71.89.67.3,1.09.3c.23,0,.45-.03.64-.09s.37-.15.52-.28.27-.27.37-.44.16-.36.2-.58h2.09c-.04.39-.15.77-.33,1.15s-.44.72-.76,1.03-.72.56-1.18.74-.99.28-1.58.28h-.03Z"/>
      <path class="cls-1" d="M4.13,20.29c-.79,0-1.49-.17-2.11-.52s-1.12-.86-1.48-1.52-.54-1.48-.54-2.43.18-1.78.55-2.44.86-1.18,1.49-1.52c.63-.34,1.32-.52,2.1-.52.52,0,1,.07,1.44.21s.83.35,1.17.62.62.61.83,1,.35.85.41,1.36h-2.09c-.04-.21-.1-.41-.19-.58s-.21-.32-.36-.44-.32-.21-.51-.28-.41-.09-.64-.09c-.43,0-.79.11-1.1.32s-.55.51-.71.91-.25.88-.25,1.44.08,1.07.25,1.47.41.69.71.89.67.3,1.09.3c.23,0,.45-.03.64-.09s.37-.15.52-.28.27-.27.37-.44.16-.36.2-.58h2.09c-.04.39-.15.77-.33,1.15s-.44.72-.76,1.03-.72.56-1.18.74-.99.28-1.58.28h-.03Z"/>
      <path class="cls-1" d="M21.47,1.48h-5.85s0,0-.02,0c-.06,0-.12.02-.17.05h0L4.1,7.89c-.18.1-.24.33-.14.51s.33.24.51.14h0L14.51,2.91c0,.2.03.39.14.56.1.17.24.31.41.41l-10.05,5.65c-.18.1-.24.33-.14.51s.33.24.51.14h0l10.04-5.65c0,.2.04.39.14.55s.24.3.41.41l-10.05,5.67c-.18.1-.24.33-.14.51s.33.24.51.14h0l10.06-5.67c0,.2.04.39.14.56s.24.31.41.41l-10.07,5.69c-.18.1-.24.33-.14.51s.33.24.51.14h0l11.31-6.39.03-.02h.02c.05-.04.1-.09.12-.14h0l3.11-4.87c.07-.12.08-.26.02-.39s-.19-.19-.33-.2h-.02ZM18.11,6.44c-.39.18-.83.16-.97-.08-.14-.25.07-.67.47-.9h0s.08-.06.12-.1c.09-.12.12-.28.04-.42,0-.02-.02-.03-.04-.05-.12-.15-.32-.23-.48-.1l-.04.02c-.22.12-.45.17-.64.14-.1-.01-.28-.06-.37-.21s-.03-.33,0-.42c.08-.18.25-.34.44-.47l.06-.03c.18-.1.24-.33.14-.51-.05-.1-.14-.15-.24-.18-.1-.03-.19-.02-.29.03h-.03c-.4.22-.87.2-1.01-.06s.06-.63.43-.88h5.04s-2.68,4.21-2.68,4.21h.02Z"/>
    </g>
  </g>
</svg>