<svg width="388" height="103" viewBox="0 0 388 103" fill="none" xmlns="http://www.w3.org/2000/svg">
<path d="M319.5 0.13623C320.871 -0.0783892 321.751 0.0128923 322.266 0.0610352C322.661 0.103491 322.968 0.156768 323.228 0.208496C323.744 0.313247 324.082 0.41288 324.363 0.499512C324.641 0.586569 324.855 0.663614 325.042 0.733887C325.149 0.774127 325.246 0.812593 325.337 0.849121C325.52 0.922062 325.679 0.989851 325.828 1.05518C326.157 1.20096 326.304 1.26979 326.5 1.36279C327.928 2.05783 328.826 2.58332 329.856 3.17627C331.789 4.30339 333.613 5.44318 335.399 6.48096C335.459 6.51384 335.022 6.01007 335.839 6.46045C336.488 6.81856 336.886 7.11671 337.189 7.37451C338.153 7.85427 339.088 8.31827 339.972 8.74463C341.408 9.70043 338.385 8.2231 338.62 8.4917C339.232 8.87667 340.136 9.42918 340.811 9.85986C342.146 10.5884 340.393 9.19108 340.506 9.22607C340.994 9.3843 341.794 9.98712 342.587 10.5845C342.863 10.6345 343.243 10.8202 343.71 11.2515C343.775 11.3116 343.657 11.29 343.498 11.2544C344.246 11.7821 344.865 12.126 345.035 11.8228C346.456 12.7998 345.913 12.5955 348.06 13.7612C347.812 13.5428 347.565 13.3264 347.322 13.1128C349.231 13.8201 351.947 16.235 353.076 17.394C353.347 17.6024 353.648 17.8273 353.981 18.0435C355.397 18.9654 357.038 20.0193 358.81 21.2397C359.504 21.7159 360.198 22.2087 360.883 22.7095C361.227 22.8896 361.002 22.5375 361.458 22.8296C361.458 22.8307 361.46 22.8324 361.46 22.8335C363.454 24.1347 364.072 24.8548 363.591 24.771C365.835 26.5497 367.807 28.3009 369.096 29.6909C366.831 27.5332 364.415 25.6882 361.881 23.8843C361.387 23.5658 360.8 23.1581 360.13 22.6538C359.965 22.5391 359.8 22.423 359.634 22.3081C359.656 22.3135 359.677 22.3167 359.694 22.3198C359.483 22.1563 359.262 21.9854 359.037 21.8042C359.139 21.8412 359.242 21.879 359.345 21.9165C359.148 21.7822 358.904 21.6263 358.649 21.4702C358.467 21.3594 358.279 21.2499 358.1 21.145C358.14 21.1722 358.178 21.1978 358.211 21.2202C357.71 21.1218 356.407 20.1554 355.567 19.5737C355.761 19.5689 356.748 20.2279 357.507 20.7437C357.694 20.8365 357.947 20.9616 358.276 21.1274C357.319 20.476 353.004 17.7726 349.07 15.3101C348.833 15.2265 348.548 15.1071 348.21 14.9321C350.774 16.6096 353.727 18.1243 353.573 18.8071C355.127 19.8303 356.677 20.8631 358.284 21.9937C358.55 22.1817 358.815 22.3712 359.08 22.561C359.172 22.4332 359.447 22.3944 360.68 23.5024C361.229 23.9972 360.529 23.5487 360.018 23.2427C362.394 24.986 364.686 26.8041 366.905 28.6782C368.481 29.8679 370.173 31.1549 371.828 32.4507C374.375 34.5106 376.812 36.3815 379.216 40.0571C379.314 40.2196 379.412 40.3886 379.511 40.563C379.813 40.8751 380.113 41.1883 380.413 41.5015C379.968 40.6163 379.378 39.546 378.749 38.8599C377.193 36.8593 375.566 35.4327 375.053 34.8198C375.078 34.7355 376.385 35.7187 377.829 37.27C378.55 38.048 379.319 39.0085 379.94 40.0298C380.429 40.8152 380.799 41.6614 380.96 42.0757C381.526 42.6717 382.089 43.2688 382.647 43.8677C383.947 45.3375 383.201 45.0716 384.745 46.7437C388.685 50.7189 387.723 56.3705 383.203 59.6714C382.903 59.8732 382.553 60.1135 382.142 60.397C382.531 60.2184 382.922 60.033 383.316 59.8403C387.943 56.4613 388.927 50.6763 384.894 46.6069C384.578 46.1305 384.258 45.6504 383.937 45.1733C384.168 45.4521 384.56 45.9106 385.042 46.4722C389.166 50.6337 388.159 56.5497 383.427 60.0054C380.3 62.0023 375.433 64.5122 374.673 65.0786C374.547 65.1699 374.538 65.6508 372.98 66.6343C371.615 67.5079 371.245 67.3788 370.501 67.7905C369.879 68.1383 369.276 68.6558 369.098 68.7593C368.961 68.8378 368.798 68.7137 368.465 68.9087C367.417 69.5363 368.54 69.3914 367.201 69.604C367.422 69.4081 367.643 69.2154 367.864 69.0259C366.624 69.8098 364.885 70.8344 366.504 69.394C366.783 69.1522 366.644 69.4934 366.867 69.3247C375.949 63.0942 368.286 67.5921 365.52 70.231C364.541 70.5628 360.568 74.437 360.439 74.5708C360.199 74.7005 360.724 73.8555 359.694 74.6235C359.424 74.7027 354.538 80.5533 356.047 78.2466C356.358 77.7281 358.861 75.077 359.477 74.4712C357.582 75.4949 355.035 79.8019 354.701 80.2349C353.231 81.9158 357.006 76.5702 353.788 80.4546C351.364 83.5114 353.903 80.851 353.129 82.1392C352.663 82.8659 349.771 86.2118 350.303 86.4575C349.491 87.7636 349.751 86.8538 349.626 86.9976C349.507 87.1263 347.993 89.7478 347.374 90.5366C347.297 90.6307 347.252 90.154 347.166 90.2476C347.132 90.2852 347.046 90.4173 346.926 90.6069C346.362 91.6613 345.247 93.4445 345.148 93.5757C345.104 93.6754 345.897 92.9713 345.71 93.353C345.609 93.5704 344.9 94.596 344.132 95.478C343.34 96.3848 343.017 96.7235 343.022 96.7817C343.023 96.8575 343.312 96.5641 344.127 95.6948C344.915 94.852 345.643 93.9123 345.484 94.3745C344.728 95.3737 343.45 96.759 343.251 97.103C343.006 97.4911 342.891 97.8736 342.801 98.2476C342.815 98.1594 342.944 97.9079 343.066 97.7183C343.189 97.525 343.307 97.3847 343.405 97.2866C343.505 97.4911 343.409 97.764 343.213 98.0913C343.018 98.4154 342.748 98.7331 342.794 98.3179C342.71 98.8222 342.953 98.5855 342.963 98.9106C342.967 98.9846 342.606 99.6997 342.598 99.8872C342.617 99.8838 343.124 99.2318 343.123 99.4204C343.138 99.6593 341.94 102.188 341.812 102.426C341.439 102.998 342.261 100.759 342.18 100.546C342.169 100.485 341.048 102.163 340.999 102.214C340.653 102.171 341.777 100.219 341.406 100.341C341.121 100.809 340.835 101.3 340.556 101.792C340.852 100.722 341.461 99.2869 341.967 98.2905C342.502 97.2449 342.709 96.9626 342.864 96.5229C341.94 97.5381 340.417 101.139 339.752 100.732C339.461 100.589 339.858 99.258 339.768 99.2661C339.416 99.3055 338.905 101.244 338.862 101.323C338.821 101.373 338.794 101.393 338.778 101.387C338.621 101.285 339.649 98.685 339.645 98.5591C339.618 98.2913 338.581 99.139 338.465 99.0933C338.455 99.0286 339.189 97.2241 338.705 97.7104C338.204 98.1893 337.465 99.8221 337.415 99.8901C337.151 100.122 338.336 97.254 338.325 97.1636C338.305 97.0949 337.365 98.4729 337.285 98.4956C337.198 98.5089 337.608 97.2753 337.637 96.7456C337.658 96.3402 337.055 97.2448 337.118 97.0659C337.147 96.8852 338.54 94.4371 338.613 94.394C338.687 94.2128 338.174 94.602 338.183 94.5044C338.193 94.3469 338.761 93.709 338.64 93.7534C338.511 93.6438 336.092 96.428 335.959 96.4155C335.673 96.212 338.27 93.0143 335.373 95.7524C335.349 95.7752 335.012 96.6556 334.999 96.6733C334.543 97.1112 335.534 94.1979 334.002 97.605C336.726 91.177 333.926 96.6104 333.921 95.4507C333.881 94.9958 335.225 92.4867 335.261 92.4663C334.881 92.5609 334.56 93.4583 334.306 93.6626C334.115 93.7815 335.339 91.3954 334.877 91.7964C334.553 92.0052 333.191 94.4554 333.163 94.5396C332.532 95.4196 332.962 94.1691 332.753 94.3218C332.601 94.428 331.886 95.8983 331.864 95.9272C331.793 95.9884 332.474 93.8371 332.632 93.3481C332.728 92.9824 331.963 94.1362 332.05 93.894C332.479 92.4365 335.045 89.6732 332.473 92.1763C332.315 92.3318 331.735 93.4363 331.719 93.4565C331.165 94.0156 332.193 92.0241 332.311 91.5259C332.41 90.7205 330.79 93.8174 332.084 91.1909C330.739 92.9974 330.297 93.9952 329.429 96.0581C330.559 93.2412 331.613 90.9959 331.788 90.3589C331.982 89.7086 330.68 91.0133 329.171 94.2651C330.175 92.2081 329.709 92.17 330.048 91.5181C330.146 91.138 333.017 87.8982 331.007 88.8979C330.689 89.0556 329.541 91.2554 329.714 90.4565C333.344 85.2429 329.507 90.2971 329.597 90.2485C329.402 90.1915 330.28 88.4068 331.931 86.5698C332.686 85.7253 332.881 85.5298 333.199 85.1138C333.508 84.7095 333.892 84.1181 334.263 83.48C334.306 83.4077 334.428 83.1857 334.475 83.1157C335.495 81.5434 336.363 80.2855 336.693 79.7437C337.828 77.8664 338.587 75.951 338.878 75.5425C339.822 74.2266 339.24 75.4607 339.524 75.2212C339.778 74.9817 342.179 71.0226 342.373 70.8608C343.01 70.23 342.675 71.1184 342.745 71.0552C343.528 70.2782 347.436 65.4021 348.785 64.2095C348.606 64.0979 346.154 66.6927 347.451 64.8608C348.983 62.7387 349.724 63.229 349.79 63.2095C351.411 61.5082 353.2 59.9198 355.075 58.4312C351.779 58.8077 348.193 59.2934 346.051 58.9351C346.278 59.6103 340.833 58.9107 338.455 59.0024C336.516 59.0868 333.853 59.6413 336.393 59.8159C333.093 59.9211 329.707 60.1539 326.614 60.27C326.103 60.2891 326.787 60.0718 325.938 60.1099C325.861 60.1147 325.76 60.3152 325.026 60.3521C318.884 60.6451 321.886 60.1614 320.735 60.0591C320.096 59.9997 319.619 59.972 319.269 59.9653C322.818 59.882 326.923 59.7068 328.047 59.6694C327.041 59.2679 320.184 59.9274 318.093 59.8247C318.024 59.821 318.261 59.5777 318.192 59.5757C318.191 59.5757 318.189 59.5765 318.188 59.5767C317.465 59.5712 312.556 59.6958 313.576 59.9751C313.819 60.0501 316.12 60.0377 318.735 59.978C318.005 60.041 318.552 60.3042 318.424 60.3179C316.926 60.4723 313.115 60.2376 311.803 60.2046C311.499 60.1979 311.519 60.3699 311.469 60.3716C310.249 60.3358 310.742 59.8409 309.491 60.3521C307.294 59.7407 313.633 60.2497 313.174 59.8481C312.83 59.5702 298.797 59.6895 298.856 60.1509C298.808 60.0985 298.617 60.0322 298.224 59.9546C297.346 59.7842 293.449 59.7805 292.779 59.8569C292.665 59.8726 292.702 60.3431 292.561 60.3462C292.186 60.3528 287.473 59.8957 285.656 60.1294C286.627 60.2175 287.591 60.3038 288.544 60.3892C282.706 60.2682 283.638 60.4224 285.553 60.6099C285.651 60.6134 285.747 60.6332 285.84 60.6372C287.356 60.776 289.257 60.914 289.288 60.9517C289.387 61.1047 279.556 60.9479 281.458 60.5552C281.743 60.5052 286.238 60.8079 284.018 60.4429C283.636 60.3801 280.712 60.3934 280.545 60.354C279.537 60.1012 285.906 59.9586 285.129 59.6128C283.598 59.8863 281.622 59.6741 279.815 59.7036C279.008 59.7172 278.811 59.9471 278.71 59.9497C277.233 59.9687 278.066 59.7453 277.574 59.7368C277.315 59.7343 274.344 60.1688 274.923 59.4604C265.277 59.6703 272.19 59.9175 278.171 60.0513C276.304 60.2631 272.605 60.0172 270.971 60.021C270.378 60.0228 270.722 60.2774 269.715 60.2905C267.776 60.3208 259.265 59.7519 255.94 59.5093C255.683 59.491 255.46 59.4755 255.275 59.4624C255.561 59.4597 255.782 59.4485 255.944 59.4312C256.446 59.3776 256.374 59.2677 255.955 59.1948C255.764 59.1615 255.5 59.1358 255.189 59.1265C253.981 59.0902 254.976 59.4875 254.741 59.5151C254.49 59.5446 248.814 59.1143 247.871 59.1108C252.164 59.1905 251.2 58.8816 247.572 58.6772C248.104 58.6277 248.631 58.5773 249.157 58.5269C247.025 58.5327 242.569 57.8997 241.331 57.9487C241.137 57.9573 241.814 58.2156 241.708 58.2212C240.62 58.2583 236.952 57.8195 236.772 57.8813C236.62 57.9355 238.182 58.2146 237.593 58.271C237.469 58.2828 235.971 57.8947 234.469 57.8716C233.912 57.8628 234.232 58.0926 234.092 58.0962C232.926 58.1203 233.628 57.8158 231.492 57.7261C229.926 57.6584 228.731 57.9182 226.57 57.6313C233.654 58.6094 227.691 57.9917 224.688 57.8657C224.206 57.8438 224.586 58.2666 221.733 57.8188C227.895 57.6819 220.03 57.3141 218.419 57.1187C218.332 57.1062 218.324 56.855 217.541 56.7671C217.475 56.7607 217.55 56.9397 216.817 56.8726C209.852 56.1894 214.316 56.512 213.018 56.1919C212.571 56.0807 210.262 55.931 208.913 55.8022C208.61 55.7747 208.355 55.7497 208.189 55.728C207.99 55.7014 208.103 55.539 207.332 55.4409C205.96 55.2675 204.694 55.2879 203.773 55.1792C203.666 55.1648 203.698 54.8905 201.938 54.7427C201.439 54.7003 200.875 54.7223 201.563 54.897C203.364 55.3518 206.471 55.5231 208.903 55.8765C209.61 55.979 210.271 56.0908 210.842 56.2231C212.094 56.5101 210.622 56.3909 208.86 56.1812C207.312 55.9984 205.496 55.7623 205.303 55.7368C205.162 55.7187 206.632 55.7773 205.16 55.5522C203.902 55.3606 201.511 55.5258 199.598 55.1519C199.45 55.1234 197.97 54.5019 198.043 54.4878C198.123 54.4833 200.482 54.7267 200.158 54.562C200.116 54.5434 198.622 54.3347 198.436 54.2192C198.211 54.0792 197.711 52.9508 197.396 52.8765C196.582 52.6905 197.082 53.0057 196.55 52.9097C195.411 52.7134 191.476 51.7527 191.279 52.0776C191.939 52.2144 192.593 52.3463 193.251 52.4761C189.569 51.8946 191.106 52.3041 190.575 52.2837C190 52.2554 190.209 51.9715 188.976 51.7124C188.705 51.6765 183.487 50.6736 183.552 50.8042C186.478 51.2227 185.328 51.3683 185.459 51.4067C185.964 51.5381 186.648 51.4521 187.328 51.5903C192.084 52.5302 187.215 51.9644 188.323 52.2651C188.708 52.3691 189.511 52.3261 189.673 52.3647C190.203 52.4929 190.169 52.738 190.529 52.7817C191.364 52.8819 190.46 52.3681 190.528 52.3608C191.307 52.2827 194.161 53.0317 192.292 53.106C193.358 53.4227 193.554 52.9855 194.385 53.3052C196.03 53.9336 193.494 53.4422 192.788 53.3833C190.255 53.1763 189.539 52.8856 185.979 52.2349C184.694 51.9959 183.13 51.8805 182.53 51.7554C182.147 51.6877 178.811 50.0722 178.407 51.2183C177.055 50.7517 175.123 49.382 173.722 48.9995C172.455 48.6548 172.73 49.186 172.608 49.1685C172.421 49.1411 170.912 48.6329 170.382 48.522C169.759 48.3942 170.003 48.6502 169.035 48.3979C166.616 47.7526 166.827 47.3406 166.594 47.23C163.92 45.9029 164.92 46.9296 164.286 46.7495C164.163 46.7133 163.721 46.5432 163.08 46.2837C160.758 45.3493 155.828 43.2304 154.545 42.8472C155.216 43.0223 155.889 43.1984 156.564 43.3745C155.519 42.6573 154.143 42.5851 154.304 42.1187C153.772 42.7627 151.626 41.324 150.919 41.063C150.64 40.9602 150.61 41.0937 150.263 40.9614C148.902 40.4391 145.929 39.1531 145.182 38.9429C141.953 38.0094 149.759 41.5718 150.407 41.8853C149.112 41.3378 141.948 38.7516 145.072 40.3726C145.555 40.6222 146.578 40.6398 146.871 40.7397C148.831 41.4145 147.202 41.1146 147.338 41.2017C147.579 41.3483 148.965 41.5668 149.291 41.7368C149.395 41.793 148.568 41.7715 150.417 42.519C149.388 42.4 144.312 40.1546 143.625 39.9761C143.382 39.9155 144.647 41.0084 140.512 38.8579C140.543 38.9282 140.574 38.9995 140.605 39.0698C138.191 38.2134 135.804 37.4231 133.465 36.7437C133.757 36.6968 135.146 36.8519 133.474 36.3999C132.517 36.1486 133.134 36.6287 133.047 36.6128C132.702 36.5481 130.113 35.757 127.084 35.1323C121.584 33.9929 114.611 32.5574 112.62 32.1929C111.496 31.9809 108.338 31.6067 108.096 31.5669C106.667 31.3127 101.672 30.243 100.662 30.1021C100.032 30.0116 100.585 30.3524 100.028 30.2427C99.5094 30.1403 100.086 30.0082 99.9351 29.9712C98.6717 29.6405 88.9081 28.3318 86.6274 27.7974C88.0282 28.0585 95.1292 28.7346 95.0308 28.563C95 28.5344 93.3209 28.0798 92.9517 28.1069C92.4021 27.8141 90.2965 28.0933 89.228 27.8081C89.1071 27.7762 89.6428 27.5114 87.7065 27.1528C87.3628 27.0897 86.7344 27.0588 85.9614 26.9702C85.2872 26.895 84.493 26.7749 83.7056 26.5308C81.3355 26.1491 68.8084 25.3639 68.0278 25.9917C68.0588 26.0097 69.7167 26.0644 68.5767 26.2612C67.0427 26.5403 68.3935 25.7856 66.5864 25.8433C66.295 25.8114 61.3742 26.4242 61.2427 26.5327C59.8399 27.1168 64.0748 26.6705 64.0317 26.7515C63.8764 26.8558 60.4075 27.4031 60.272 27.4253C60.1351 27.4187 62.8662 26.4568 59.5171 27.2163C59.9114 27.2046 60.3095 27.1957 60.7056 27.1919C59.1401 27.5722 58.9364 27.2777 58.5503 27.3296C57.3529 27.5075 56.239 28.2916 54.2847 28.1929C53.7655 28.1693 54.487 27.7527 54.4272 27.7437C53.7834 27.6905 53.2551 28.5032 52.2827 28.355C52.2244 28.3507 54.0201 27.3722 50.6919 28.6196C50.933 28.5707 51.177 28.5236 51.4204 28.479C51.1269 28.6539 49.594 29.3169 48.5513 29.8628C47.8841 30.2015 47.3341 30.4804 47.1567 30.561C45.6249 31.2623 46.7888 30.3086 45.2964 31.1196C46.4576 30.9977 41.9229 33.4573 42.0054 33.0015C41.5912 33.7528 37.5627 35.5884 35.7632 36.6499C34.6241 37.3072 32.434 38.8764 32.0698 39.0757C31.6192 39.3183 31.5795 38.9629 30.7612 39.3862C30.5271 39.5063 28.3255 41.1585 26.1362 42.1968C25.7138 42.3955 24.5868 42.4842 25.2407 41.8892C26.3464 40.8754 28.971 39.7256 28.7651 39.478C28.5431 39.2016 25.4563 41.4261 24.5825 41.9614C20.5687 44.3967 22.604 42.5971 22.4458 42.564C22.0309 42.513 19.9086 43.9814 19.811 44.0249C19.3815 44.1916 20.7641 42.9705 20.6929 42.8218C20.5976 42.6221 18.3365 43.725 18.7554 43.3452C19.3498 42.7976 21.4309 41.7637 21.5503 41.6675C22.9971 40.4398 20.5646 41.4789 19.8394 41.686C19.6193 41.746 20.2583 41.1582 20.0991 41.2407C17.6387 42.5314 20.0113 42.1445 18.479 43.1294C17.1059 44.0225 18.6386 42.5431 18.5776 42.5649C18.4935 42.5968 16.9003 43.7007 16.5806 43.7925C16.4295 43.8088 20.2094 40.395 19.894 40.2827C18.5874 41.2492 17.2816 42.2379 16.0024 43.2368C15.6806 43.0075 17.7414 41.8753 17.9263 41.7046C18.2808 41.3626 17.0599 41.9887 17.0366 41.8628C17.0178 41.7834 18.1863 40.6395 16.9302 41.3872C16.5001 41.6453 15.8017 42.45 14.188 43.3052C19.0858 39.3567 15.4543 41.714 15.2026 41.729C14.9816 41.7256 17.2535 39.7157 14.311 41.896C13.7626 41.4028 14.2286 41.6711 15.0103 40.9546C15.9762 40.0811 13.3941 41.5973 17.3462 39.0503C16.9303 38.9155 13.8536 41.1239 13.6929 41.2202C13.5426 41.2988 14.1137 40.6801 13.8423 40.8071C10.6079 42.3652 12.7367 41.1759 11.6597 41.4526C11.5638 41.4675 8.78944 43.3931 10.7974 41.7837C14.4679 38.8939 16.37 38.2231 16.4409 36.9185C13.3074 38.5187 10.3387 41.5569 9.51611 42.2251C8.24341 43.2391 9.43509 42.0431 9.24756 42.1157C9.17272 42.1468 8.10336 43.013 8.06787 43.0239C6.79761 42.9867 12.9739 39.2076 14.7769 37.8433C14.2018 38.1043 13.6617 38.3437 13.0845 38.6138C13.7606 38.1229 14.4274 37.6469 15.0981 37.1733C11.7516 39.2446 14.9302 37.1715 15.3794 36.0991C15.4766 35.8588 13.4849 37.5344 15.6948 35.5249C13.8449 36.6931 14.3381 36.1925 12.8364 37.4751C12.711 37.2403 16.2113 34.4413 17.605 33.3706C12.3165 36.624 15.7448 35.3749 11.0913 38.0962C10.4672 38.9388 12.508 37.38 12.3716 37.5464C11.8785 38.13 10.2592 38.929 8.96924 40.7417C8.76197 41.0383 10.1181 40.403 8.39697 41.7183C8.21678 41.8523 6.95683 42.5045 6.9585 42.4771C6.94757 42.1981 8.08303 41.3973 8.0708 41.2944C8.0628 41.1871 6.90268 42.1748 6.87354 42.1733C6.65239 41.9939 7.81818 41.2801 7.60596 41.3403C7.16334 41.4433 2.42468 44.5115 8.23291 40.0786C3.70803 44.0834 7.79783 40.7479 9.58838 39.2808C10.0428 38.9031 10.0744 38.673 10.7124 38.1333C11.5523 37.4246 12.6284 36.7553 13.063 36.4116C13.5387 36.0391 10.5049 37.6852 14.6353 34.938C12.3254 36.0491 8.96597 38.9908 6.81982 40.3599C2.44944 43.1656 9.2096 37.5895 9.90967 37.1069C10.0913 36.9554 9.31967 37.2447 9.43896 37.1401C9.63746 36.9465 13.6372 34.2236 13.936 33.812C14.2167 33.3924 12.4956 34.8207 12.2495 34.7642C12.0868 34.6997 16.7783 31.2066 14.1147 32.9214C12.2804 34.0903 9.2957 36.889 8.42139 36.8569C11.0011 34.8814 13.6095 33.0097 16.2573 31.1841C14.6819 31.9804 13.0994 32.8047 11.5337 33.647C14.4638 31.505 17.1941 29.9777 19.9087 27.8774C12.6316 31.7831 21.8509 25.9569 21.9399 25.8521C21.9378 25.7883 18.8965 27.0565 18.4087 27.2573C20.6886 25.4862 28.1732 20.8664 23.4136 22.9409C24.2874 22.5847 26.013 21.121 26.0034 21.0894C25.5876 20.9703 21.4732 23.6972 22.0161 23.0522C22.6464 22.2928 23.9922 21.9753 25.2085 21.2114C31.5023 17.3331 28.9479 16.9433 35.6968 13.6216C35.5384 13.641 35.3796 13.6614 35.2212 13.6812C36.6442 12.955 38.0829 12.2414 39.5317 11.5474C46.6916 8.1285 53.9637 6.56552 61.0083 5.79639C64.39 4.80784 73.4664 4.20769 77.8394 4.58057C78.7269 4.61261 83.0313 5.20209 83.3423 5.29639C83.9336 5.43244 80.6276 5.1696 82.1079 5.45947C82.3985 5.4818 88.0083 6.19746 89.0376 6.2251C89.1695 6.22209 89.2211 6.20226 89.1685 6.16162C89.1329 6.15484 89.0929 6.1482 89.0503 6.14111C88.1357 5.98282 85.7879 5.80365 85.3999 5.70361C84.4535 5.45264 86.2344 5.55984 89.0776 5.95654C94.4741 6.68671 103.967 8.44757 104.667 8.46143C104.23 8.29466 103.785 8.12698 103.348 7.96143C104.639 8.23177 105.925 8.50521 107.212 8.78369C106.675 8.76317 106.138 8.74411 105.601 8.7251C107.08 9.04054 109.088 9.35258 110.449 9.68213C110.67 9.73636 110.048 9.84403 110.578 9.95361C111.109 10.0633 111.063 9.74829 111.841 9.86279C112.719 9.99067 116.646 10.9642 118.012 11.2319C122.501 12.1008 127.017 12.8914 131.443 13.8501C132.169 14.0062 132.892 14.1764 133.602 14.3579C132.524 14.1484 131.816 14.0442 131.413 14.0005C130.843 13.9478 130.951 14.0289 131.379 14.1626C132.281 14.4226 134.343 14.9393 135.211 15.1138C135.552 15.2043 135.753 14.5456 141.337 16.4058C144.811 17.6373 141.385 17.2979 147.213 18.9194C143.019 16.845 147.359 18.3789 150.698 19.6333C151.29 19.844 155.846 21.7085 157.82 22.481C158.502 22.7446 159.64 22.8851 160.533 23.2368C161.146 23.4788 161.551 23.8152 162.457 24.1714C165.177 25.2434 167.826 26.2936 170.462 27.3286C171.834 27.8674 173.209 28.3843 174.602 28.8853C172.06 28.8014 176.303 29.8149 176.486 29.8931C177.365 30.4063 173.076 29.0273 174.724 29.7202C177.091 30.5031 179.478 31.2048 181.9 31.8354C179.947 31.2123 184.679 31.9261 185.48 32.3462C185.192 31.7067 196.628 35.2559 198.618 35.2192C199.016 35.2246 196.507 34.5415 202.394 35.5415C203.035 35.6481 202.764 35.8135 203.106 35.8423C203.314 35.8589 204.629 35.3949 205.911 35.9233C206.391 36.1186 203.168 36.1077 210.109 36.8716C209.207 36.5283 210.004 36.5219 211.569 36.6929C214.46 37.0229 220.121 37.8323 221.569 38.0728C221.139 37.9417 220.716 37.8102 220.287 37.6772C222.419 38.1357 222.838 37.9471 223.322 38.0063C225.28 38.2421 227.985 38.6923 229.837 38.811C232.008 38.9495 232.044 38.5464 234.574 38.8745C233.972 38.7451 233.384 38.6162 232.784 38.4849C234.532 38.6282 236.288 38.762 238.05 38.8901C233.945 39.1736 238.917 38.9719 239.259 38.9771C239.778 38.988 239.021 39.1628 239.891 39.186C239.979 39.1851 239.869 38.974 241.212 39.0269C244.029 39.1356 243.584 39.3695 244.758 39.4292C244.864 39.4325 244.505 39.2288 246.548 39.2896C253.084 39.4743 246.519 39.4331 246.257 39.4438C245.929 39.4598 248.118 40.3579 242.605 39.7876C244.453 39.976 244.623 40.3281 244.832 40.3481C245.027 40.3664 248.242 40.4811 248.421 40.4771C250.023 40.4387 248.631 40.135 248.943 40.1079C249.193 40.0877 253.087 40.5799 254.019 39.9136C255.862 40.6509 252.913 40.4586 249.792 40.4077C249.329 40.5201 252.749 40.8141 252.939 40.8218C257.364 41.0243 254.935 40.3743 255.919 40.0757C256.117 40.0162 256.501 40.0439 256.811 40.0708C257.271 40.1107 257.561 40.1481 256.82 39.8911C256.751 39.8672 256.672 39.8403 256.584 39.811C256.666 39.8137 256.746 39.8162 256.823 39.8188C260.544 39.9465 258.177 40.1105 258.432 40.1626C258.826 40.2405 260.237 40.1634 260.411 40.189C260.665 40.2272 259.766 40.356 260.777 40.4575C260.948 40.4726 262.582 40.2539 260.491 40.0288C263.291 40.1872 263.067 39.9315 264.017 40.4634C266.013 39.6093 265.415 41.0708 266.18 41.1528C268.202 41.3675 267.638 40.6131 267.748 40.5815C268.47 40.3826 274.125 40.8312 275.518 40.7661C274.911 41.2761 271.086 40.6266 270.176 40.6948C267.224 40.9311 274.296 41.1029 272.146 41.6909C273.042 41.5394 273.917 41.3863 274.812 41.2329C276.441 41.71 274.129 41.8265 278.518 41.8022C279.246 41.4568 275.417 41.7671 276.189 41.5005C276.655 41.3458 279.185 41.384 279.237 41.2954C279.293 41.1895 277.001 41.2497 277.366 41.0942C278.141 40.7651 286.565 41.3298 280.129 41.353C281.935 41.397 282.835 42.1321 284.372 41.9478C285.375 41.8257 279.784 40.7147 288.206 41.0864C288.385 41.4262 284.815 41.1122 284.735 41.1333C284.606 41.1675 285.221 41.942 285.33 41.9819C285.756 42.1222 294.356 41.8856 296.139 42.2808C295.448 41.838 302.638 42.2765 303.43 42.1401C303.636 42.104 302.862 41.8303 303.084 41.8032C304.449 41.6447 308.257 42.1357 309.972 42.1431C311.951 42.1529 311.69 41.92 311.802 41.9204C312.659 41.9299 311.976 42.0901 312.499 42.0874C313.266 42.0882 318.714 42.0695 319.01 42.0278C319.087 42.0157 318.192 41.7632 319.387 41.6968C319.594 41.6841 319.47 42.0066 322.974 41.8071C327.214 41.5592 320.013 41.4728 321.774 41.1089C324.521 41.5275 324.411 41.0614 325.141 41.0825C325.371 41.0915 327.338 41.4408 329.346 41.356C327.916 41.4625 326.373 41.5666 324.933 41.6626C326.375 41.7014 329.187 41.5401 330.4 41.5786C330.987 41.5981 330.521 41.938 331.783 41.8872C332.041 41.8726 333.106 41.0523 329.775 41.5122C329.499 41.2386 331.106 41.3729 331.825 41.2681C331.939 41.2506 332.34 40.7669 333.287 41.0249C333.493 41.0869 331.156 42.5672 337.386 41.3101C337.587 41.2688 336.872 41.1291 337.069 41.0845C337.212 41.0548 338.812 41.0504 338.98 41.0171C339.155 40.9822 338.386 40.8308 338.596 40.7837C339.657 40.5424 341.175 41.2117 338.893 41.2681C339.628 41.325 340.441 41.3763 341.196 41.4282C340.368 40.9093 342.337 41.2103 343.426 41.1274C350.136 40.5931 345.614 40.5116 346.755 40.2495C348.565 39.8184 347.233 40.8823 349.956 40.3872C350.159 40.3436 347.992 40.2537 350.665 40.0542C350.26 39.7679 349.651 39.2942 348.703 38.479C348.189 38.0469 348.334 38.0081 348.322 37.9038C348.263 37.8765 348.187 37.8397 348.095 37.7915C347.969 37.7227 347.78 37.5661 347.575 37.3921C347.56 37.3891 347.545 37.3873 347.531 37.3843C346.559 37.1889 346.382 36.9166 346.244 36.6812C345.732 36.3222 345.218 35.9657 344.705 35.6118C344.232 35.3612 343.923 35.2322 343.86 35.1919C342.344 34.2312 340.107 32.7646 338.389 31.7163C338.358 31.701 339.118 32.4467 338.05 31.6948C337.886 31.5778 337.206 30.9234 336.22 30.0884C333.426 28.3827 330.601 26.7755 327.739 25.2954C328.77 26.0072 331.236 26.882 331.192 27.5249C330.955 27.3567 330.586 27.1161 330.12 26.8208C329.612 26.6241 328.4 25.8795 327.879 25.645C327.983 25.5845 328.559 25.8887 329.155 26.2192C328.526 25.8323 327.801 25.394 327.023 24.9302C326.285 24.5549 325.545 24.1855 324.802 23.8276C325.169 23.9663 325.537 24.1156 325.905 24.269C325.035 23.7562 324.125 23.2257 323.226 22.7085C323.191 22.6945 323.153 22.6814 323.117 22.6646C322.89 22.5592 322.33 22.2648 321.508 21.8433C321.094 21.6303 320.623 21.3903 320.042 21.0874C319.396 20.7218 318.901 20.5872 317.12 19.3325C316.643 18.9609 316.382 18.7542 315.803 18.2847C315.678 18.1818 315.554 18.0774 315.427 17.9692C315.247 17.8164 315.026 17.6252 314.78 17.3921C314.646 17.2645 314.545 17.1682 314.332 16.9458C313.977 16.5376 313.525 16.1855 312.676 14.6431C312.467 14.238 312.231 13.731 312.011 13.0181C311.957 12.8397 311.904 12.647 311.854 12.4399C311.842 12.3884 311.83 12.3352 311.818 12.2817C311.811 12.2502 311.808 12.2429 311.796 12.186C311.782 12.1198 311.769 12.0512 311.756 11.9819C311.704 11.7034 311.659 11.3989 311.629 11.0679C311.505 9.76898 311.644 7.87565 312.57 6.00439C314.564 1.97941 318.396 0.914284 319.847 0.756348C321.491 0.54793 322.402 0.765552 322.422 0.750488C323.323 0.875955 323.759 1.01789 324.126 1.12646C324.888 1.37294 324.996 1.4368 325.227 1.52686C325.434 1.61216 325.61 1.68907 325.774 1.76221C326.048 1.88417 326.225 1.96453 326.425 2.0542C326.625 2.14405 326.783 2.21373 326.909 2.26416C327.039 2.3173 327.16 2.363 327.265 2.39893C327.702 2.54879 327.719 2.50331 327.473 2.33154C327.221 2.15967 326.78 1.89232 325.996 1.50146C325.738 1.37639 325.444 1.23728 325.04 1.07373C324.971 1.04552 324.745 0.95743 324.502 0.874512C324.252 0.789343 323.953 0.692508 323.505 0.584473C323.28 0.530839 323.014 0.473817 322.674 0.421387C322.589 0.408354 322.498 0.395343 322.403 0.383301C322.286 0.370769 322.297 0.364161 321.831 0.328613C321.069 0.297746 320.015 0.210633 318.154 0.76709C316.394 1.23569 313.253 3.19092 311.994 6.39502C311.356 7.91623 311.191 9.409 311.234 10.5581C311.254 11.1379 311.321 11.6478 311.407 12.0933C311.463 12.3786 311.463 12.3616 311.487 12.4692C311.506 12.5535 311.527 12.6359 311.547 12.7153C311.889 13.9876 312.283 14.6999 312.588 15.2397C313.817 17.1871 314.23 17.31 314.372 17.5122C314.581 17.7182 314.752 17.8756 314.911 18.0171C314.989 18.0874 315.065 18.1543 315.138 18.2173C315.207 18.2771 315.237 18.3031 315.285 18.3442C315.373 18.4203 315.46 18.4933 315.544 18.564C315.709 18.7023 315.889 18.8486 316.025 18.9595C316.139 19.0537 316.249 19.1451 316.353 19.231C316.56 19.4026 316.743 19.5562 316.871 19.6724C317.442 20.1144 317.613 20.2395 317.396 20.1499C317.214 20.0352 317.019 19.9065 316.809 19.7573C316.51 19.5582 316.233 19.3688 315.97 19.1831C315.865 19.1108 315.642 18.9456 315.478 18.8218C315.293 18.6811 315.163 18.582 314.916 18.3784C314.77 18.2573 314.616 18.1262 314.442 17.9683C314.354 17.889 314.261 17.8019 314.159 17.7036C314.108 17.6545 314.054 17.6016 313.998 17.5454C313.97 17.5174 313.94 17.4877 313.911 17.4575C313.862 17.4074 313.785 17.3267 313.715 17.2515C313.426 16.9289 313.066 16.5487 312.508 15.6792C312.232 15.2319 311.892 14.6564 311.539 13.6958C311.451 13.4546 311.364 13.1868 311.283 12.8872C311.242 12.7376 311.203 12.5793 311.167 12.4126C311.162 12.3919 311.157 12.3701 311.153 12.3491C311.142 12.3 311.131 12.2462 311.121 12.1938C311.1 12.0879 311.08 11.9776 311.062 11.8647C311.025 11.6387 310.993 11.3971 310.969 11.1411C310.705 9.19775 311.387 5.59154 313.649 3.27393C315.859 0.940088 318.177 0.367622 319.5 0.13623ZM347.631 87.8735C347.427 88.3225 346.941 89.142 346.334 90.1509C345.608 91.5211 344.529 93.2408 343.394 94.5474C342.22 95.8784 341.99 96.0935 341.943 96.189C341.906 96.2638 342.171 96.134 342.274 96.146C342.324 96.1527 342.319 96.2082 342.219 96.3364C342.117 96.4726 341.966 96.6118 341.626 97.0142L341.625 97.0161C341.99 96.7723 342.205 96.6169 342.5 96.312C342.784 96.0174 343.366 95.3643 343.894 94.6353C344.961 93.1637 345.418 91.9744 345.557 91.7798C345.82 91.3859 345.691 92.174 345.75 92.0913C345.805 92.0185 346.252 91.2931 346.696 90.479C347.29 89.5089 347.938 88.4809 347.987 88.3843C348.046 88.2624 347.306 88.6225 347.631 87.8735ZM328.825 94.6118C329.669 93.2427 328.207 96.623 328.126 96.7427C327.801 97.0951 328.429 95.244 328.825 94.6118ZM344.808 91.5718C344.032 92.9451 341.916 95.1342 341.865 95.5278C342.551 94.8734 344.683 92.3642 344.808 91.5718ZM348.099 91.4058C348.64 90.5716 349.062 90.0225 348.951 90.4556C348.912 90.6077 348.742 90.9268 348.505 91.3296C347.554 93.2702 344.863 96.4944 345.783 95.0718C345.93 94.9021 347.286 92.8698 348.099 91.4058ZM349.322 88.771C349.249 88.9994 348.69 89.9444 348.05 91.0278C347.203 92.7042 345.831 94.6632 345.68 94.7964C344.612 95.912 346.657 93.2638 347.797 91.0825C348.526 89.9149 349.203 88.9166 349.322 88.771ZM349.81 83.3081C347.857 85.6188 348.53 85.8509 348.031 86.5386C347.33 87.5262 346.925 87.1616 346.918 86.8579C346.768 87.3927 346.139 88.5145 345.366 89.8608L345.51 89.6118C344.749 91.1528 343.457 93.1562 342.355 94.394C343.511 93.2555 344.902 91.3623 345.845 89.7944L345.69 90.061C346.437 89.0017 347.126 88.059 347.695 87.2632C348.051 86.7661 348.247 86.2052 348.548 85.7896C349.042 85.1116 348.802 85.8431 348.839 85.8042C348.84 85.803 348.841 85.8015 348.842 85.8003C349.553 84.9633 349.952 83.5539 348.597 85.4312C349.004 84.704 349.387 84.0265 349.81 83.3081ZM348.099 91.4058C348.077 91.4404 348.053 91.4747 348.03 91.5103L348.262 91.1118C348.212 91.2069 348.155 91.3044 348.099 91.4058ZM347.365 91.0278C348.381 89.4183 349.821 86.8647 349.423 88.2935C349.198 89.1012 348.665 89.3681 348.609 89.4478C348.293 89.8979 347.819 90.6674 347.472 91.1646L347.686 90.7974C347.381 91.3031 347.17 91.5652 347.2 91.3003C347.253 91.2158 347.308 91.1246 347.365 91.0278ZM347.797 91.0825C347.755 91.1503 347.712 91.2188 347.669 91.2876L347.89 90.9087C347.861 90.9666 347.828 91.0239 347.797 91.0825ZM347.365 91.0278C347.354 91.0447 347.344 91.062 347.333 91.0786L347.542 90.7192C347.482 90.8277 347.422 90.9308 347.365 91.0278ZM347.269 88.8687C347.924 88.0464 347.051 89.463 346.491 90.3716C346.352 90.6204 346.258 90.7825 346.24 90.8071C345.863 91.2886 346.08 90.8264 346.42 90.1606C346.728 89.6474 347.094 89.0889 347.269 88.8687ZM346.696 90.479C346.665 90.5288 346.634 90.5781 346.604 90.6274L346.79 90.3091C346.759 90.3662 346.727 90.4225 346.696 90.479ZM346.42 90.1606C346.368 90.2488 346.315 90.3358 346.267 90.4194L346.442 90.1196C346.435 90.1334 346.427 90.1471 346.42 90.1606ZM349.474 88.9897C349.742 88.814 349.673 89.6179 349.181 90.0298C348.97 90.2069 349.033 89.6762 349.474 88.9897ZM346.833 86.6831C347.926 85.6202 346.724 85.4522 346.583 85.5806C346.001 86.1272 344.939 88.5834 344.742 89.1167C346.717 85.6794 346.325 87.1921 346.833 86.6831ZM345.486 86.7661C346.493 86.049 346.234 84.6682 345.435 86.2427C345.397 86.319 345.44 86.7953 345.486 86.7661ZM351.577 82.8716C350.597 83.7553 349.304 86.1419 349.776 85.6226C349.974 85.3885 351.597 83.1634 351.577 82.8716ZM333.017 84.6411C333.283 84.5691 333.086 84.9417 332.88 85.144C332.673 85.3509 332.411 85.4743 332.525 85.1431C332.536 85.127 332.981 84.6799 333.017 84.6411ZM336.425 79.3237C336.619 79.446 335.15 81.5819 334.28 82.9946C334.231 83.0667 334.107 83.2949 334.062 83.3696C333.896 83.6718 333.772 83.8932 333.708 84.0327C333.754 83.8433 333.84 83.6096 333.964 83.3169C334.009 83.2413 334.136 83.0091 334.185 82.936C334.785 81.7844 335.709 80.3534 336.425 79.3237ZM350.227 80.6772C350.959 79.4988 348.674 82.1895 348.533 82.9487C348.931 82.3528 350.003 81.0279 350.227 80.6772ZM356.375 78.7759C356.537 78.4901 360.478 73.9264 360.101 74.7896C359.746 75.2736 354.197 81.4225 353.442 82.6108C353.865 81.421 354.702 80.8098 355.713 79.5474C355.988 79.2063 355.792 79.1952 355.822 79.1587C356.298 78.5782 356.078 79.1251 356.375 78.7759ZM358.845 74.0493C359.424 72.0061 355.317 77.7963 354.196 78.0024C359.306 72.1477 350.257 81.4469 354.701 78.0464C351.536 81.2287 353.897 79.2749 353.585 79.9058C353.244 80.5886 351.589 82.4847 351.901 82.5776C351.902 82.5766 351.903 82.5757 351.904 82.5747C352.82 81.3006 353.739 80.0837 354.698 78.8833C353.235 79.6461 355.385 77.3183 356.492 76.8872C356.672 76.4823 356.87 76.0639 357.065 75.6538C358.137 75.6792 357.392 74.587 358.845 74.0493ZM352.927 79.2661C352.549 79.5595 349.755 83.4852 351.06 82.0444C351.165 81.9025 353.151 79.1732 352.927 79.2661ZM360.874 74.4946C360.544 75.4024 357.585 78.1665 359.312 75.9868C359.487 75.7705 360.388 75.1086 360.874 74.4946ZM357.985 72.1089C357.44 72.6854 355.841 74.1367 355.771 74.4888C356.282 73.9727 357.838 72.4891 357.985 72.1089ZM367.983 67.7798C366.889 68.2058 360.774 73.4097 360.625 73.8257C360.563 73.9143 360.657 74.1163 360.699 74.0864C360.95 73.7293 366.982 68.398 367.983 67.7798ZM357.269 73.6411C358.216 72.994 357.914 72.325 357.159 73.3999C357.129 73.4424 357.231 73.6623 357.269 73.6411ZM366.723 70.6772C366.975 70.8232 364.444 72.6958 363.879 73.3071C364.246 72.6681 365.835 71.4051 366.723 70.6772ZM359.351 73.0874C360.604 72.2052 359.551 72.1282 358.882 73.0835C358.845 73.1386 359.293 73.1285 359.351 73.0874ZM341.704 68.9399C343.359 67.2049 339.604 72.2225 339.562 72.2808C339.457 72.313 340.831 69.829 341.704 68.9399ZM361.988 69.48C362.718 69.2098 362.923 68.1775 362.012 68.9214C361.741 69.1477 361.908 69.5076 361.988 69.48ZM346.154 66.8491C345.515 67.5588 344.604 68.6251 344.305 68.6841C344.744 68.1997 346.061 66.7354 346.154 66.8491ZM373.794 65.0015C371.869 65.5258 367.961 69.2318 370.782 67.1821C370.839 67.1415 370.114 67.2814 371.287 66.5747C371.391 66.5167 371.711 66.6592 373.159 65.6558C373.455 65.4509 373.831 64.9962 373.794 65.0015ZM351.321 59.1138C353.024 57.8526 345.906 64.4273 345.791 64.6841C345.674 64.7725 345.591 64.8261 345.539 64.8521C345.36 65.1725 344.178 66.5254 343.874 66.5376C344.236 66.1431 345.21 65.0276 345.349 64.9165C345.407 64.8688 345.452 64.8342 345.485 64.813C345.704 64.1681 350.912 59.2995 351.321 59.1138ZM371.849 65.4517C374.248 63.8734 369.412 66.5307 370.192 66.3804C370.238 66.3658 371.593 65.6156 371.849 65.4517ZM374.56 64.2817C374.097 64.463 370.374 66.6829 371.808 65.9712C371.921 65.9033 374.558 64.4358 374.56 64.2817ZM373.093 63.3052C372.474 63.6915 370.724 64.5789 370.729 64.7856C371.308 64.3882 373.071 63.5149 373.093 63.3052ZM368.571 64.5513C370.565 63.636 369.044 63.8098 368.079 64.5894C368.042 64.6253 368.522 64.5738 368.571 64.5513ZM352.199 60.3247C350.27 62.1853 352.244 60.6463 350.255 62.4302C350.555 61.8009 350.809 61.498 352.199 60.3247ZM383.316 45.354C383.332 45.4691 383.916 46.1803 384.546 46.9253C388.363 50.776 387.431 56.2502 383.052 59.4478C381.947 60.1384 380.804 60.8116 380.715 60.8804C379.668 61.6834 381.517 60.6794 383.154 59.5981C387.628 56.331 388.579 50.7377 384.679 46.8032C384.024 46.0731 383.412 45.426 383.316 45.354ZM289.768 60.8872C289.538 60.5738 292.702 60.8319 293.281 60.8677C293.071 61.0031 289.896 61.1131 289.768 60.8872ZM278.938 60.4595C279.02 60.453 280.828 60.5256 280.909 60.5386C282.38 60.817 277.276 60.6142 278.938 60.4595ZM295.578 60.2622C297.059 60.3652 298.84 60.3461 298.871 60.1772C298.901 60.2039 298.971 60.2339 299.086 60.2632C299.209 60.2923 300.746 60.2287 301.442 60.2915C305.471 60.6905 285.787 60.2976 297.213 59.9722C296.672 60.0694 296.126 60.1659 295.578 60.2622ZM347.227 59.6216C346.687 59.7868 343.758 59.9986 343.217 59.8579C344.453 59.7104 345.926 59.713 347.227 59.6216ZM244.715 59.2515C245.74 59.2683 246.804 59.2297 247.132 59.4829C246.489 59.4151 244.582 59.4092 244.715 59.2515ZM350.326 59.1919C350.158 59.3453 347.661 59.5277 347.313 59.4077C348.071 59.2727 349.369 59.2735 350.326 59.1919ZM264.443 59.2173C263.992 59.1402 262.54 59.1385 262.381 59.2739C263.106 59.3734 265.491 59.3974 264.443 59.2173ZM259.976 59.0649C259.735 59.0185 257.472 59.065 257.406 59.1704C258.71 59.3426 261.083 59.2825 259.976 59.0649ZM233.96 58.2554C234.639 58.1155 238.896 58.5244 239.851 58.7632C238.914 58.9913 233.134 58.441 233.96 58.2554ZM255.994 58.314C252.212 57.6261 254.349 58.7694 255.073 58.7085C255.142 58.7021 255.655 58.5677 255.987 58.4683C256.169 58.4139 256.294 58.3698 256.259 58.3628C256.168 58.3457 256.079 58.3293 255.994 58.314ZM247.529 58.0474C248.198 58.1453 248.384 58.37 248.693 58.3335C248.799 58.3204 248.826 58.1172 249.19 58.0815C248.639 58.0709 248.086 58.059 247.529 58.0474ZM249.639 58.0884C250.644 58.161 252.538 58.4561 252.332 58.1372C252.33 58.1371 252.328 58.1372 252.327 58.1372C251.427 58.1216 250.543 58.1056 249.639 58.0884ZM372.435 57.7905C372.474 57.8323 372.514 57.8748 372.553 57.9165L372.588 57.6157C372.55 57.5735 372.51 57.531 372.471 57.4888L372.435 57.7905ZM228.168 57.4468C227.35 57.1795 224.995 57.245 225.594 57.3755C226.018 57.4693 228.984 57.7182 228.168 57.4468ZM226.845 56.9946C226.766 57.1475 229.627 57.4284 229.735 57.4155C231.389 57.2633 228.032 57.0834 226.845 56.9946ZM221.772 56.6626C221.255 56.5831 220.548 56.8476 220.608 56.8687C221.135 57.0424 222.634 56.9288 221.772 56.6626ZM211.692 56.5142C211.756 56.5153 213.137 56.7044 213.19 56.7192C214.403 57.1073 210.236 56.5344 211.692 56.5142ZM225.432 56.6958C225.293 56.6723 222.401 56.3398 222.412 56.478C223.171 56.6603 227.043 57.0147 225.432 56.6958ZM216.705 56.2104C216.054 55.9292 214.164 55.7227 214.702 55.9985C214.765 56.0274 216.413 56.335 216.705 56.2104ZM210.84 55.2222C209.478 55.159 212.791 55.8017 213.283 55.647C212.665 55.5551 211.324 55.246 210.84 55.2222ZM191.596 54.9175C192.122 54.799 193.677 55.123 194.721 55.2964C194.203 55.4252 192.651 55.1105 191.596 54.9175ZM199.016 52.7993C201.845 54.0539 201.62 53.3569 201.875 53.397C202.427 53.4818 203.669 53.8809 204.701 53.981C203.513 53.9181 202.315 53.8536 201.113 53.7847C201.839 53.9367 206.747 54.7818 209.007 55.1235C209.734 55.2325 210.218 55.2894 210.263 55.2632C210.411 55.1763 209.714 55.0515 209.032 54.9478C208.484 54.8643 207.938 54.7988 207.898 54.7856C207.796 54.747 207.479 54.1557 207.249 54.1021C206.891 54.0184 200.117 53.1031 199.016 52.7993ZM192.757 54.8706C192.319 54.7249 194.677 54.9729 195.369 55.1499C195.287 55.2965 193.049 54.9703 192.757 54.8706ZM178.914 51.27C178.625 50.8598 181.688 51.9408 182.46 52.0708C182.597 52.094 182.748 51.8446 183.495 51.9858L183.498 51.9849C183.775 52.0381 184.097 52.3561 184.193 52.3794C184.431 52.4539 189.538 53.3639 187.534 53.2886C187.195 53.3182 179.856 51.5939 178.914 51.27ZM193.582 52.7466C192.777 52.366 196.546 53.0583 196.662 53.0972C197.279 53.3638 194.247 53.0676 193.582 52.7466ZM177.623 51.3501C177.551 51.3209 177.385 50.9805 178.542 51.3433C179.847 51.7465 178.489 51.6754 177.623 51.3501ZM166.769 48.2817C167.148 48.2825 169.271 49.0825 169.747 49.2896C169.825 49.3271 169.355 49.5358 170.336 49.8267C171.125 50.0556 170.062 49.3506 171.571 49.8853C173.098 50.4173 170.961 50.0185 171.088 50.0747C171.271 50.1625 173.703 50.7361 173.573 50.9058C173.47 51.0393 170.929 50.1601 170.292 49.981C169.47 49.7576 170.372 50.3189 169.035 49.8218C168.2 49.5073 168.808 49.242 168.638 49.1606C168.488 49.1003 165.463 48.3069 166.773 48.2847C166.772 48.2839 166.77 48.2826 166.769 48.2817ZM362.117 48.4321C362.235 48.8773 362.365 49.1606 362.444 49.3853C362.56 49.6558 362.645 49.8169 362.707 49.9233C362.717 49.9386 362.726 49.954 362.734 49.9673C362.765 50.0187 362.788 50.0574 362.809 50.0894C362.926 50.2513 362.899 50.1706 362.893 50.1343C362.881 50.0877 362.88 50.0513 362.907 50.0483C362.931 50.0428 362.987 50.074 363.02 50.0845C363.049 50.0818 363.066 50.1123 362.88 49.7417C362.816 49.599 362.712 49.3975 362.58 49.0142C362.541 49.0408 362.498 49.0752 362.454 49.1206C362.492 48.9861 362.506 48.8735 362.505 48.7798C362.505 48.7784 362.505 48.7763 362.504 48.7749C362.367 48.6641 362.234 48.5458 362.117 48.4321ZM362.677 48.9644C362.73 49.0975 362.777 49.2063 362.811 49.3022C362.992 49.7051 363.074 49.8064 363.125 49.8755C363.271 50.0475 363.258 49.8881 363.226 49.7388C363.189 49.5785 363.123 49.3888 363.05 49.2417C362.986 49.1135 362.918 49.0209 362.84 48.978C362.882 49.0336 362.909 49.0678 362.905 49.0679C362.848 49.0322 362.791 48.9917 362.733 48.9507C362.715 48.952 362.697 48.958 362.677 48.9644ZM361.881 46.8735C361.912 46.8897 361.939 46.9004 361.96 46.9067C361.933 46.8817 361.906 46.8558 361.878 46.8306C361.879 46.8448 361.88 46.8595 361.881 46.8735ZM163.364 45.5552C161.611 44.8672 160.109 44.3206 162.542 45.437C162.604 45.465 162.894 45.589 163.288 45.7515C164.569 46.2869 166.9 47.1495 166.292 46.7271C166.176 46.649 164.7 46.0811 163.364 45.5552ZM166.244 46.0903C165.359 45.6511 162.972 44.9605 163.628 45.3384C164.036 45.585 167.254 46.6045 166.244 46.0903ZM157.169 44.6587C157.909 44.6933 159.846 45.6543 160.898 46.1079C160.174 46.0396 158.069 45.103 157.169 44.6587ZM159.332 44.4351C159.804 44.6094 161.935 45.5654 162.055 45.5952C163.738 46.0108 160.448 44.6442 159.332 44.4351ZM382.542 43.1567C381.934 42.2815 384.252 44.5168 384.753 45.3394C384.873 45.8531 382.635 43.2753 382.542 43.1567ZM154.31 44.1509C154.964 44.3242 155.098 44.0379 155.827 44.3716C158.006 45.368 156.309 44.852 154.31 44.1509ZM7.45459 37.0493C5.41644 39.1023 7.49481 37.3747 7.14893 37.8403C6.87813 38.2017 5.47213 39.1692 6.40576 38.7622C5.18156 39.3503 1.0543 42.7487 0.108887 44.3423C-0.17497 44.7252 0.0750973 43.1478 1.10205 42.2671C4.12437 39.8356 2.34792 41.7498 7.45459 37.0493ZM150.724 42.7798C150.116 42.2877 152.146 43.2083 152.196 43.2144C152.299 43.2174 151.27 41.9437 154.245 43.7114C154.68 43.9706 152.934 43.4925 153.09 43.5864C153.416 43.7782 153.683 43.9139 153.902 44.0073C152.394 43.4703 150.857 42.8852 150.724 42.7798ZM158.4 42.1226C159.917 42.7523 161.443 43.3815 162.979 44.0044C163.203 43.9526 162.379 43.6939 161.848 43.4224C161.849 43.4229 161.852 43.4238 161.853 43.4243C161.252 43.1169 159.623 42.3662 158.4 42.1226ZM5.69385 41.6333C6.95562 40.8444 4.23685 43.3358 3.73486 43.4673C3.643 43.4536 5.46618 41.7525 5.69385 41.6333ZM157.263 43.2671C157.232 43.0346 154.877 42.351 155.322 42.6343C155.604 42.8143 157.272 43.4075 157.263 43.2671ZM150.808 42.0562C150.77 41.8829 153.425 42.8007 153.473 43.2095C152.926 42.9604 150.847 42.1687 150.808 42.0562ZM299.532 43.1392C300.847 42.9565 297.804 42.6956 297.217 42.8394C296.935 42.9122 298.958 43.2198 299.532 43.1392ZM318.662 42.7749C318.476 42.759 316.613 42.8145 316.677 42.938C317.364 43.0067 319.735 42.8909 318.662 42.7749ZM5.12158 41.354C6.07649 40.731 4.21137 42.3776 3.56006 42.8979C3.4037 42.8549 4.99887 41.4171 5.12158 41.354ZM284.639 42.3726C283.156 42.5401 286.312 42.7817 286.049 42.5073C286.001 42.4918 284.701 42.3661 284.639 42.3726ZM291.459 42.5151C290.14 42.1699 287.96 42.1565 288.49 42.5884C290.937 42.6089 288.181 42.2059 291.459 42.5151ZM277.948 41.8647C276.372 41.858 274.657 42.6201 276.644 42.5552C276.857 42.5472 278.122 41.9843 277.948 41.8647ZM336.146 42.147C336.107 41.977 333.95 42.1415 334.24 42.2407C334.352 42.2747 336.183 42.2849 336.146 42.147ZM14.8091 38.2241C15.8769 37.8241 11.1396 41.5738 10.1128 42.0308C10.988 41.1782 13.2105 39.7441 14.0669 39.0347C14.1665 38.9516 13.2042 38.8115 14.8091 38.2241ZM294.695 41.2817C295.15 41.2367 295.596 40.6712 298.027 40.9917C298.029 40.9917 298.031 40.9917 298.033 40.9917C298.738 41.0849 297.932 41.2157 298.061 41.2671C298.128 41.2908 300.292 41.5981 298.478 41.6245C295.675 41.662 298.221 41.1942 296.722 41.1694C296.521 41.1674 293.726 41.4382 293.882 41.5083C293.912 41.5156 294.745 41.4636 294.881 41.4937C295.402 41.608 295.146 41.7838 295.219 41.7935C295.46 41.8206 299.957 41.5699 300.569 41.8394C300.795 41.9336 293.465 42.0413 293.185 41.9858C293.005 41.9544 293.088 41.4577 292.903 41.4048C292.808 41.3801 289.831 41.5133 289.468 41.4595C289.359 41.4441 289.274 41.4275 289.212 41.4146C289.653 41.5778 286.995 41.5119 287.072 41.3394C287.123 41.2725 288.959 41.3499 289.023 41.3628C289.051 41.3684 289.076 41.3761 289.099 41.3813C288.708 41.1896 294.951 41.3071 293.607 41.0034C295.4 40.8782 293.349 41.4104 294.695 41.2817ZM156.141 41.4165C154.601 40.2635 155.182 41.1709 156.653 41.9351C157.198 41.9161 156.395 41.605 156.141 41.4165ZM300.237 41.4995C302.23 41.3355 301.156 40.9342 303.362 41.0659C303.177 41.1172 302.99 41.1681 302.804 41.2192C305.906 41.1118 309.595 41.3708 313.204 41.3481C314.112 41.3425 313.056 41.0283 314.263 41.1079C315.245 41.1715 316.312 41.4585 315.789 41.5298C315.663 41.5474 313.662 41.3703 312.708 41.394C309.812 41.465 310.525 41.7345 310.361 41.7437C310.154 41.7523 308.357 41.5614 307.353 41.5679C304.8 41.5845 303.717 41.7502 300.237 41.4995ZM271.717 41.4233C272.707 41.1648 267.678 41.0528 267.272 41.3755C267.903 41.4478 271.604 41.454 271.717 41.4233ZM150.644 39.6577C150.084 39.6125 152.559 40.7012 152.726 40.7446C153.698 40.9883 151.733 39.7426 150.644 39.6577ZM154.833 40.5483C153.265 39.5115 152.623 39.9989 153.906 40.5181C154.405 40.7204 155.054 40.6966 154.833 40.5483ZM345.731 40.3892C346.875 40.6225 341.231 40.792 343.849 40.438C343.982 40.4223 345.654 40.3806 345.731 40.3892ZM147.457 40.3579C146.117 40.0502 146.628 39.5161 147.64 40.1665C147.676 40.1942 147.51 40.368 147.457 40.3579ZM350.478 40.188C350.606 40.2922 350.831 40.3361 351.107 40.3442C351.024 40.2963 350.926 40.2338 350.808 40.1538C350.698 40.1645 350.588 40.1774 350.478 40.188ZM7.79736 36.4897C7.52739 36.8724 3.3379 40.3161 3.2876 40.1284C3.26668 39.845 7.13392 36.9518 7.79736 36.4897ZM348.743 39.7212C349.947 39.9145 345.22 40.0189 344.902 40.0991C344.569 39.8126 348.422 39.6813 348.743 39.7212ZM148.818 38.9507C148.68 38.9138 149.384 39.6278 149.971 39.6919C150.424 39.7399 149.337 39.0891 148.818 38.9507ZM347.319 38.353C346.308 37.3533 350.231 40.1814 348.833 39.4438C348.775 39.4131 347.383 38.4096 347.319 38.353ZM139.059 37.8345C140.88 38.5795 138.897 37.964 138.904 38.0405C138.917 38.2446 142.094 39.1969 142.766 39.5493C143.433 39.4226 140.698 38.7384 140.224 38.4849C140.223 38.4845 140.221 38.4834 140.22 38.4829C140.079 38.4053 142.735 38.5299 139.059 37.8345ZM18.9292 38.0425C19.2652 37.2889 18.1953 38.1984 17.7886 38.3745C17.4198 38.5331 17.0395 38.481 16.3911 39.0972C17.2346 38.7403 18.0743 38.3929 18.9292 38.0425ZM150.786 38.8647C150.338 38.582 145.435 36.7636 146.085 37.3022C146.319 37.488 149.194 38.3667 149.321 38.439C149.504 38.5414 148.507 38.4539 150.023 38.9956C149.974 38.8705 150.934 38.9564 150.786 38.8647ZM11.3491 37.4058C11.4766 37.4633 9.92314 38.6418 9.76709 38.7388C8.80386 39.2945 10.7116 37.768 11.3491 37.4058ZM138.274 37.7671C136.75 37.2707 137.676 38.1439 138.689 38.2681C138.748 38.2707 138.374 37.8017 138.274 37.7671ZM32.2876 36.728C32.3656 36.5339 30.9164 37.2815 30.6294 37.5229C30.19 37.8908 32.1528 37.0388 32.2876 36.728ZM137.202 37.3843C136.169 36.5287 133.541 36.714 135.427 37.2104C135.612 37.2558 137.231 37.4197 137.202 37.3843ZM370.427 30.2866C371.152 30.6972 371.927 31.21 372.503 31.5903C373.54 32.2967 373.995 32.5949 372.687 31.356C372.465 31.1442 372.185 30.8827 371.842 30.5679C372.176 30.8219 372.48 31.0558 372.754 31.27C377.181 34.8958 374.919 33.4733 375.111 33.6304C375.366 33.8934 376.327 34.6408 376.494 34.8618C379.391 38.8686 375.281 33.9965 372.349 31.7866C371.578 31.1578 370.886 30.6101 370.427 30.2866ZM39.8149 33.5181C38.923 33.6725 35.6124 35.8299 36.5542 35.5083C36.6854 35.4547 39.323 33.7728 39.8149 33.5181ZM126.995 34.6587C126.861 34.606 124.957 34.2553 124.987 34.3901C125.878 34.7412 127.596 34.896 126.995 34.6587ZM338.416 32.4302C339.003 32.5455 340.797 33.7801 341.646 34.3394C340.964 34.1853 339.44 33.0653 338.416 32.4302ZM50.7378 29.7583C50.4255 30.0923 49.6373 30.3874 48.9644 30.7026C48.6025 30.8731 48.2573 31.0425 47.9819 31.2056C46.6926 31.9648 44.9279 34.0688 45.4126 32.6372C46.5881 31.9659 47.7691 31.3088 48.9487 30.6714C49.5219 30.3538 50.1196 30.049 50.7378 29.7583ZM44.8169 31.0845C44.688 31.1184 41.9954 32.6006 42.3462 32.5396C43.0065 32.409 45.2516 30.9449 44.8169 31.0845ZM49.1714 31.3403C48.712 31.9031 46.0733 32.9905 47.1138 32.3403C47.4016 32.1592 48.6523 31.6082 49.1714 31.3403ZM372.071 32.1411C371.602 31.7419 371.096 31.1606 371.446 31.3091C371.733 31.4316 372.01 31.7299 372.195 31.9839C372.403 32.2515 372.512 32.4687 372.445 32.4272C372.336 32.3566 372.206 32.2548 372.071 32.1411ZM112.958 32.0249C113.048 31.8928 107.629 30.8531 107.222 30.9731C108.093 31.0518 112.87 32.135 112.958 32.0249ZM336.94 31.0757C331.005 27.6105 330.674 26.4367 335.857 30.0269C335.964 30.1025 337.336 31.2227 336.94 31.0757ZM48.3765 29.5093C47.6067 29.8732 46.9144 30.2374 47.355 30.1938C47.3928 30.186 47.9277 29.9174 48.4419 29.6421C48.8486 29.4191 49.2559 29.1905 49.2329 29.1294C48.9908 29.2339 48.6728 29.3702 48.3765 29.5093ZM48.4653 28.8364C48.3757 28.8126 48.2388 28.8383 48.0747 28.897C47.4151 29.1468 46.3375 29.81 45.603 30.1343C45.9114 30.1707 47.2761 29.4599 48.1323 29.0122C48.2583 28.9451 48.3723 28.8855 48.4653 28.8364ZM370.232 29.6011C369.142 28.7599 370.56 29.3804 371.05 29.936C371.231 30.1412 370.502 29.8093 370.232 29.6011ZM49.564 28.8042C49.288 28.7406 48.767 28.9645 48.2456 29.2437C47.7811 29.488 47.2984 29.7612 46.895 29.9575C47.1433 29.9927 47.7063 29.7147 48.3208 29.395C48.7345 29.1764 49.1953 28.9338 49.564 28.8042ZM17.5044 27.8257C17.6003 27.8971 15.5102 29.31 15.4175 29.3608C14.2506 29.9638 16.7366 28.2358 17.5044 27.8257ZM98.2866 29.1567C100.165 29.2196 96.4324 28.5845 96.4253 28.7739C96.4375 28.8455 98.2124 29.1535 98.2866 29.1567ZM53.9888 28.3853C54.6441 28.3253 52.8684 29.0568 52.1509 29.1421C52.0815 29.0021 53.8726 28.3872 53.9888 28.3853ZM332.794 27.772C333.481 28.168 334.167 28.5718 334.848 28.979C334.395 28.6334 333.909 28.2844 333.404 27.9497C332.834 27.6278 332.27 27.3112 331.716 27.0024C332.077 27.2588 332.436 27.5159 332.794 27.772ZM170.668 27.6069C170.577 27.7278 172.88 28.6932 173.192 28.5435C172.729 28.3941 170.73 27.543 170.668 27.6069ZM92.9517 28.1069C93.0424 28.1553 93.0952 28.2165 93.0894 28.3013C92.8509 28.1683 92.8362 28.1155 92.9517 28.1069ZM22.8618 22.7837C20.2416 24.7762 22.7129 23.0947 22.8882 23.2104C23.598 23.6697 18.9975 25.1895 17.7153 26.2241C17.538 26.3642 19.0765 25.6694 18.6255 26.0415C17.1556 27.239 11.5921 29.4956 16.9858 26.1909C16.9846 26.1917 16.9832 26.193 16.9819 26.1938C18.393 25.3449 17.6442 26.0569 17.7104 26.022C20.8131 24.3729 19.7973 24.5151 20.2349 24.1753C21.1765 23.4565 21.2873 24.0071 22.8618 22.7837ZM79.3462 26.8511C77.9567 26.6038 79.0881 26.0945 80.2183 26.4351C80.3484 26.4775 81.2125 27.201 79.3462 26.8511ZM364.011 24.8237C365.031 25.2064 367.857 27.6122 366.349 26.6938C366.117 26.5494 364.629 25.2375 364.011 24.8237ZM66.1274 26.5435C67.1886 26.6863 63.6753 26.9475 64.8589 26.6372C64.9183 26.6215 66.085 26.5353 66.1274 26.5435ZM164.812 25.3394C162.691 24.6906 168.834 27.2342 167.039 26.2612C166.952 26.2152 164.922 25.3748 164.812 25.3394ZM74.3794 26.3647C74.5401 26.1842 75.9819 26.3174 76.5952 26.394C76.5671 26.5556 74.982 26.3547 74.3794 26.3647ZM327.498 24.9731C328.055 25.2332 328.613 25.5069 329.17 25.7915C328.395 25.3776 327.758 25.0573 327.498 24.9731ZM15.0747 24.6616C16.2618 24.1619 12.6724 26.4649 13.7827 25.4907C13.8329 25.4471 15.0264 24.6811 15.0747 24.6616ZM327.141 24.3433C327.539 24.5481 327.923 24.7184 328.082 24.7417C327.801 24.6167 327.477 24.4792 327.141 24.3433ZM324.887 23.4165C325.864 23.9838 326.766 24.4747 326.207 23.9683C325.655 23.7492 325.161 23.5506 324.887 23.4165ZM22.3462 22.4185C22.4865 22.3565 20.9229 23.9502 20.2065 23.9478C19.657 23.9399 21.9845 22.5745 22.3462 22.4185ZM324.341 22.8335C324.598 23.0503 324.466 22.966 324.24 22.8384C324.132 22.8433 324.022 22.8444 323.911 22.8413C324.158 22.9883 324.438 23.1557 324.719 23.3198C324.773 23.3168 325.257 23.4393 325.608 23.4868C325.335 23.3022 324.918 23.0556 324.526 22.8257C324.465 22.8274 324.403 22.8305 324.341 22.8335ZM321.013 20.2515C321.284 20.2469 321.61 20.2498 321.991 20.231C321.868 20.1606 321.747 20.0912 321.629 20.0239C321.53 20.0283 321.435 20.0343 321.346 20.0386C321.079 20.0432 320.832 20.0332 320.626 20.021C320.756 20.0974 320.886 20.174 321.013 20.2515ZM317.968 19.2671C318.24 19.408 318.65 19.6301 319.033 19.8403C319.213 19.9399 319.393 20.0376 319.567 20.1333C319.668 20.1498 319.778 20.1679 319.897 20.1831C319.961 20.1913 320.029 20.1991 320.099 20.2065C320.121 20.209 320.154 20.2106 320.193 20.2144C320.024 20.1142 319.843 20.0107 319.659 19.9038C319.542 19.8814 319.472 19.8663 319.438 19.8569C319.392 19.8412 319.414 19.8448 319.605 19.8716C319.433 19.7721 319.256 19.6708 319.079 19.5718C318.845 19.5187 318.671 19.4722 318.528 19.4302C318.15 19.3167 317.964 19.239 317.919 19.2231C317.848 19.1954 317.805 19.1767 317.78 19.1665C317.704 19.1349 317.822 19.1906 317.968 19.2671ZM320.547 19.9731C320.801 19.99 321.118 20.0056 321.561 19.9849C321.469 19.9325 321.378 19.88 321.29 19.8296C320.719 19.8285 320.349 19.7533 320.147 19.7446C320.281 19.8204 320.416 19.8959 320.547 19.9731ZM354.589 18.0796C354.327 17.8651 353.501 16.8799 354.718 17.5933C354.432 17.9337 356.192 19.3048 357.299 19.5669C357.654 20.2505 355.768 19.0361 354.589 18.0796ZM316.107 18.0688C315.669 17.7214 315.298 17.4526 315.708 17.936C315.723 17.9523 315.832 18.0526 315.987 18.189C316.139 18.3238 316.371 18.5202 316.502 18.6353C316.81 18.9006 317.165 19.1871 317.201 19.2075C317.203 19.2088 317.206 19.2102 317.208 19.2114C317.429 19.3577 317.587 19.4511 317.693 19.5093C317.691 19.5092 317.687 19.5106 317.684 19.5103C317.433 19.4652 317.776 19.5843 317.986 19.6147C318.211 19.6503 318.357 19.6023 318.125 19.3804C317.908 19.2526 317.714 19.2406 317.682 19.314C317.67 19.3369 317.674 19.3674 317.681 19.397C317.586 19.3201 317.458 19.218 317.297 19.0894C317.159 18.9538 316.962 18.7791 316.765 18.6099C316.667 18.5252 316.567 18.4405 316.472 18.3618C316.357 18.2677 316.218 18.1573 316.107 18.0688ZM317.681 19.397C317.81 19.5008 317.88 19.5606 317.888 19.5845C317.891 19.6018 317.839 19.589 317.693 19.5093C317.727 19.5097 317.696 19.4549 317.681 19.397ZM318.341 18.6978C318.256 18.6761 318.609 19.0236 318.949 19.2993C319.166 19.3539 319.448 19.4163 319.833 19.4771C319.953 19.4944 320.045 19.5068 320.228 19.5259C320.397 19.5419 320.585 19.5551 320.8 19.564C320.341 19.344 320.523 19.5768 320.203 19.4038C319.901 19.2423 320.407 19.1839 319.369 18.7427C318.888 18.5401 320.151 19.5808 319.807 19.4624C319.601 19.3886 318.589 18.7102 318.341 18.6978ZM317.937 18.9663C317.923 18.9598 317.911 18.9531 317.901 18.9487C317.869 18.9342 317.837 18.9214 317.872 18.938C317.884 18.944 317.906 18.9528 317.937 18.9663ZM328.252 16.9565C328.076 17.1439 327.897 17.3234 327.715 17.4927C327.9 17.3284 328.079 17.1487 328.252 16.9565ZM345.074 12.8071C344.541 12.8281 346.732 14.2078 347.708 14.895C349.554 16.0467 350.964 16.9196 351.403 17.1772C350.311 16.4074 349.213 15.6428 348.12 14.8853C347.497 14.5529 346.702 14.0327 345.702 13.2007C345.486 13.0655 345.276 12.934 345.074 12.8071ZM139.194 16.1636C139.897 16.2853 137.21 15.2926 137.146 15.5122C137.152 15.5814 139.107 16.1435 139.194 16.1636ZM117.203 11.1411C116.517 11.293 121.256 12.3064 120.052 11.8267C119.784 11.7192 117.803 11.2608 117.203 11.1411ZM343.179 11.187C343.049 11.1596 342.959 11.1472 343.001 11.1948C343.031 11.2234 343.383 11.4624 343.846 11.7729C344.216 11.9425 344.294 11.9323 343.804 11.5747C343.718 11.5049 343.487 11.3658 343.179 11.187ZM341.173 10.0913C341.436 10.2654 341.629 10.4019 341.696 10.4731C341.71 10.4914 341.558 10.4859 341.39 10.4712C341.611 10.5933 341.843 10.7208 342.075 10.8472C342.053 10.7687 342.092 10.6844 342.185 10.6294C341.852 10.4479 341.502 10.2617 341.173 10.0913ZM111.592 9.60986C112.473 9.51072 116.076 10.5316 115.405 10.5112C115.246 10.5012 111.266 9.69043 111.592 9.60986ZM334.267 6.24854C334.547 6.39389 335.007 6.62468 335.454 6.8374C335.295 6.70399 335.121 6.56249 334.944 6.43213C334.634 6.31641 334.377 6.23811 334.267 6.24854ZM329.956 5.80225C329.959 5.80937 329.962 5.81755 329.965 5.82471C330.045 5.85494 330.129 5.88664 330.215 5.91846C330.173 5.81981 330.132 5.72589 330.091 5.63818C330.011 5.59777 329.903 5.54269 329.779 5.47803C329.835 5.5803 329.896 5.68757 329.956 5.80225ZM329.581 5.67432C329.656 5.70504 329.747 5.74033 329.846 5.77881C329.779 5.64727 329.713 5.52437 329.648 5.41064C329.551 5.35996 329.445 5.30734 329.338 5.25146C329.414 5.37723 329.496 5.51715 329.581 5.67432ZM328.046 2.44873C326.933 1.98758 328.502 3.02154 330.136 3.99951C330.823 4.30753 331.56 4.64606 332.309 4.99756C331.496 4.47562 328.323 2.55062 328.046 2.44873ZM328.171 3.23584C328.14 3.22033 328.115 3.20866 328.1 3.20068C328.114 3.20755 328.139 3.22353 328.182 3.24951C328.236 3.31579 328.314 3.40913 328.43 3.54541C328.468 3.59278 328.511 3.6407 328.556 3.69287C328.56 3.69547 328.564 3.69803 328.568 3.70068C328.565 3.69833 328.56 3.69612 328.557 3.69385C328.658 3.80937 328.776 3.94678 328.921 4.1333C328.98 4.16001 329.041 4.18812 329.102 4.21533C329.143 4.23329 329.184 4.25105 329.225 4.26904C329.115 4.14366 329.02 4.04156 328.94 3.93506C328.793 3.84212 328.739 3.7843 328.83 3.78369C328.747 3.68809 328.673 3.60398 328.61 3.53564C328.627 3.5474 328.645 3.5592 328.663 3.57178C328.641 3.55631 328.62 3.5405 328.6 3.52588C328.541 3.46285 328.493 3.41188 328.458 3.37646C328.397 3.34729 328.34 3.3188 328.291 3.29443C328.219 3.24107 328.16 3.19786 328.114 3.1626C328.129 3.18273 328.148 3.20693 328.171 3.23584ZM327.782 3.3501C327.82 3.3836 327.876 3.43413 327.961 3.51611C327.962 3.51718 327.963 3.51906 327.964 3.52002C327.886 3.51991 327.906 3.56625 327.888 3.58838C327.878 3.592 327.853 3.59002 327.904 3.62549C328.013 3.68029 328.107 3.71836 328.161 3.71631C328.186 3.74222 328.217 3.77581 328.253 3.81494C328.375 3.87588 328.522 3.94876 328.686 4.0249C328.61 3.93485 328.541 3.85495 328.478 3.78369C328.389 3.687 328.327 3.62325 328.284 3.57764C328.214 3.56401 328.124 3.54183 328.056 3.53076C328.038 3.52661 328.021 3.52694 328.007 3.5249C327.969 3.49661 327.929 3.46551 327.888 3.43408C327.806 3.37033 327.733 3.312 327.715 3.29541C327.709 3.28961 327.704 3.28263 327.782 3.3501ZM328.007 3.5249C328.093 3.58882 328.167 3.64187 328.206 3.66553C328.21 3.69928 328.193 3.71493 328.161 3.71631C328.142 3.69723 328.128 3.68069 328.117 3.66943C328.057 3.609 328.007 3.56059 327.964 3.52002C327.976 3.5201 327.99 3.52235 328.007 3.5249ZM328.291 3.29443C328.374 3.35617 328.474 3.43424 328.6 3.52588C328.603 3.52902 328.607 3.53241 328.61 3.53564C328.393 3.38237 328.26 3.2965 328.182 3.24951C328.179 3.24507 328.175 3.24006 328.171 3.23584C328.204 3.25205 328.245 3.27204 328.291 3.29443ZM328.703 3.51709C328.666 3.49034 328.63 3.4671 328.598 3.44385C328.587 3.43838 328.574 3.43267 328.563 3.42725C328.606 3.45563 328.654 3.48463 328.703 3.51709ZM328.07 3.38037C328.084 3.38881 328.1 3.39867 328.116 3.40771L328.114 3.40479C328.11 3.40104 328.105 3.39763 328.101 3.39404C328.062 3.37186 328.04 3.35801 328.026 3.3501C327.986 3.32999 328.021 3.35202 328.07 3.38037ZM328.031 2.99268C328.009 2.98078 328.006 2.99859 328.041 3.05811C328.055 3.08036 328.07 3.10105 328.089 3.12842C328.182 3.18355 328.283 3.24685 328.408 3.32666C328.385 3.30449 328.364 3.28363 328.345 3.26514C328.15 3.12998 328.123 3.11718 328.134 3.11279C328.146 3.11541 328.176 3.13135 328.221 3.15088C328.2 3.1318 328.182 3.11347 328.166 3.09912C328.088 3.03244 328.054 3.00696 328.031 2.99268Z" fill="#D11818"/>
</svg>
